<svg xmlns="http://www.w3.org/2000/svg" viewBox="0 0 306 292.61"><defs><style>.cls-1{fill:#e6e6e6;}.cls-2{fill:#b3b3b3;}.cls-3{fill:#39b54a;}.cls-4{fill:#fff;}.cls-5{fill:#0ab;}.cls-6{fill:#808184;}.cls-7{fill:none;}.cls-8{fill:#ffdf63;}.cls-9{fill:#027abf;}.cls-10{fill:#a6a8ab;}.cls-11{fill:#bbbdbf;}.cls-12{fill:#d0d2d3;}.cls-13{fill:#e6e7e8;}.cls-14{fill:#6d6e70;}.cls-15{fill:#cf98c4;}</style></defs><title>featurecomparison_3</title><g id="Layer_2" data-name="Layer 2"><g id="Layer_1-2" data-name="Layer 1"><path d="M88.85,6.21h-5.3v5.32h-1V.16h7V1H83.54V5.4h5.3Z"/><path d="M94.47,11.69a3.67,3.67,0,0,1-1.95-.53,3.62,3.62,0,0,1-1.36-1.48,4.61,4.61,0,0,1-.48-2.13V7.21A5,5,0,0,1,91.15,5a3.76,3.76,0,0,1,1.32-1.54,3.25,3.25,0,0,1,1.83-.56A3.05,3.05,0,0,1,96.74,4a4.26,4.26,0,0,1,.9,2.87v.52h-6v.18a3.54,3.54,0,0,0,.82,2.39,2.62,2.62,0,0,0,2.07,1,3,3,0,0,0,1.32-.27,2.93,2.93,0,0,0,1-.87l.59.45A3.41,3.41,0,0,1,94.47,11.69Zm-.17-8a2.34,2.34,0,0,0-1.78.77,3.57,3.57,0,0,0-.88,2.08h5.07v-.1a3.1,3.1,0,0,0-.7-2A2.16,2.16,0,0,0,94.3,3.72Z"/><path d="M104.8,11.53a4.41,4.41,0,0,1-.18-1.18,3.26,3.26,0,0,1-1.25,1,3.85,3.85,0,0,1-1.61.35,2.83,2.83,0,0,1-2-.68A2.21,2.21,0,0,1,99,9.29a2.26,2.26,0,0,1,1-2,4.94,4.94,0,0,1,2.86-.72h1.7v-1a1.85,1.85,0,0,0-.56-1.43,2.31,2.31,0,0,0-1.63-.52,2.55,2.55,0,0,0-1.62.5,1.49,1.49,0,0,0-.64,1.2h-.94a2.17,2.17,0,0,1,.94-1.75,3.61,3.61,0,0,1,2.3-.74,3.29,3.29,0,0,1,2.23.71,2.54,2.54,0,0,1,.84,2v4a5,5,0,0,0,.26,1.84v.09Zm-2.94-.67a3.14,3.14,0,0,0,1.68-.45,2.66,2.66,0,0,0,1.07-1.21V7.34h-1.67a4.19,4.19,0,0,0-2.19.51A1.54,1.54,0,0,0,100,9.21a1.51,1.51,0,0,0,.53,1.18A2,2,0,0,0,101.86,10.86Z"/><path d="M109.49.91V3.08h1.75v.77h-1.75V9.48a1.76,1.76,0,0,0,.25,1,1,1,0,0,0,.85.34,5.79,5.79,0,0,0,.76-.08l0,.76a3.05,3.05,0,0,1-1,.13,1.67,1.67,0,0,1-1.4-.56,2.63,2.63,0,0,1-.44-1.64V3.84H107V3.08h1.55V.91Z"/><path d="M118.61,10.46a3,3,0,0,1-2.7,1.23,2.61,2.61,0,0,1-2.05-.79,3.44,3.44,0,0,1-.72-2.32V3.08h.93V8.46q0,2.41,2,2.41A2.39,2.39,0,0,0,118.6,9.2V3.08h.94v8.45h-.91Z"/><path d="M125.87,3.88a3.53,3.53,0,0,0-.63-.05,2.28,2.28,0,0,0-1.48.49,2.67,2.67,0,0,0-.86,1.42v5.8H122V3.08h.91l0,1.34a2.49,2.49,0,0,1,2.38-1.5,1.54,1.54,0,0,1,.62.1Z"/><path d="M130.47,11.69a3.67,3.67,0,0,1-1.95-.53,3.62,3.62,0,0,1-1.36-1.48,4.61,4.61,0,0,1-.48-2.13V7.21a5,5,0,0,1,.47-2.2,3.76,3.76,0,0,1,1.32-1.54,3.25,3.25,0,0,1,1.83-.56A3.05,3.05,0,0,1,132.74,4a4.26,4.26,0,0,1,.9,2.87v.52h-6v.18a3.54,3.54,0,0,0,.82,2.39,2.62,2.62,0,0,0,2.07,1,3,3,0,0,0,1.32-.27,2.93,2.93,0,0,0,1-.87l.59.45A3.41,3.41,0,0,1,130.47,11.69Zm-.17-8a2.34,2.34,0,0,0-1.78.77,3.57,3.57,0,0,0-.88,2.08h5.07v-.1a3.1,3.1,0,0,0-.7-2A2.16,2.16,0,0,0,130.3,3.72Z"/><path d="M147.63,8a4.08,4.08,0,0,1-1.29,2.75,4.25,4.25,0,0,1-2.9,1,4,4,0,0,1-2.24-.63,4.13,4.13,0,0,1-1.5-1.79,6.38,6.38,0,0,1-.54-2.65V5.13a6.44,6.44,0,0,1,.53-2.69A4.09,4.09,0,0,1,141.22.64,4.17,4.17,0,0,1,143.51,0a4.07,4.07,0,0,1,2.89,1,4.13,4.13,0,0,1,1.23,2.73h-1a2.9,2.9,0,0,0-3.15-2.9A3,3,0,0,0,141,2a5,5,0,0,0-.92,3.2V6.56A5.05,5.05,0,0,0,141,9.7a2.88,2.88,0,0,0,2.42,1.17,3.2,3.2,0,0,0,2.27-.72A3.46,3.46,0,0,0,146.66,8Z"/><path d="M149.23,7.18A5,5,0,0,1,149.7,5,3.55,3.55,0,0,1,153,2.92a3.48,3.48,0,0,1,2.73,1.18,4.56,4.56,0,0,1,1,3.14v.2a5,5,0,0,1-.47,2.21A3.53,3.53,0,0,1,155,11.16a3.65,3.65,0,0,1-2,.53,3.48,3.48,0,0,1-2.73-1.18,4.55,4.55,0,0,1-1.05-3.14Zm.94.26A3.84,3.84,0,0,0,151,9.93a2.66,2.66,0,0,0,4.11,0,4,4,0,0,0,.79-2.57V7.18a4.31,4.31,0,0,0-.36-1.77,2.89,2.89,0,0,0-1-1.25A2.58,2.58,0,0,0,153,3.72a2.5,2.5,0,0,0-2,1,4,4,0,0,0-.79,2.57Z"/><path d="M159.56,3.08l0,1.38a3.13,3.13,0,0,1,1.17-1.15,3.22,3.22,0,0,1,1.56-.38,2.37,2.37,0,0,1,2.54,1.64,3.17,3.17,0,0,1,1.21-1.21,3.36,3.36,0,0,1,1.67-.43q2.72,0,2.77,3v5.64h-.94V6a2.52,2.52,0,0,0-.49-1.68,2,2,0,0,0-1.57-.55,2.49,2.49,0,0,0-1.7.65A2.3,2.3,0,0,0,165,5.94v5.59h-.94V5.89a2.32,2.32,0,0,0-.51-1.62A2,2,0,0,0,162,3.73a2.36,2.36,0,0,0-1.52.5,3,3,0,0,0-.94,1.5v5.8h-.94V3.08Z"/><path d="M179.68,7.39a5.09,5.09,0,0,1-.87,3.14,2.79,2.79,0,0,1-2.34,1.16,3.13,3.13,0,0,1-2.66-1.22v4.31h-.93V3.08h.87l0,1.2a3,3,0,0,1,2.65-1.35,2.81,2.81,0,0,1,2.38,1.15,5.21,5.21,0,0,1,.86,3.19Zm-.94-.16a4.35,4.35,0,0,0-.66-2.55,2.14,2.14,0,0,0-1.85-.94,2.47,2.47,0,0,0-2.42,1.62V9.41a2.48,2.48,0,0,0,1,1.11,2.77,2.77,0,0,0,1.48.38,2.12,2.12,0,0,0,1.84-.94A4.73,4.73,0,0,0,178.74,7.23Z"/><path d="M187.09,11.53a4.41,4.41,0,0,1-.18-1.18,3.26,3.26,0,0,1-1.25,1,3.85,3.85,0,0,1-1.61.35,2.83,2.83,0,0,1-2-.68,2.21,2.21,0,0,1-.75-1.72,2.26,2.26,0,0,1,1-2,4.94,4.94,0,0,1,2.86-.72h1.7v-1a1.85,1.85,0,0,0-.56-1.43,2.31,2.31,0,0,0-1.63-.52,2.55,2.55,0,0,0-1.62.5,1.49,1.49,0,0,0-.64,1.2h-.94a2.17,2.17,0,0,1,.94-1.75,3.61,3.61,0,0,1,2.3-.74,3.29,3.29,0,0,1,2.23.71,2.54,2.54,0,0,1,.84,2v4a5,5,0,0,0,.26,1.84v.09Zm-2.94-.67a3.14,3.14,0,0,0,1.68-.45A2.66,2.66,0,0,0,186.9,9.2V7.34h-1.67a4.19,4.19,0,0,0-2.19.51,1.54,1.54,0,0,0-.79,1.36,1.51,1.51,0,0,0,.53,1.18A2,2,0,0,0,184.15,10.86Z"/><path d="M194.23,3.88a3.53,3.53,0,0,0-.63-.05,2.28,2.28,0,0,0-1.48.49,2.67,2.67,0,0,0-.86,1.42v5.8h-.93V3.08h.91l0,1.34a2.49,2.49,0,0,1,2.38-1.5,1.54,1.54,0,0,1,.62.1Z"/><path d="M195.65.64a.63.63,0,0,1,.17-.45.61.61,0,0,1,.47-.18.63.63,0,0,1,.47.18.62.62,0,0,1,.18.45.61.61,0,0,1-.18.44.63.63,0,0,1-.47.18.62.62,0,0,1-.47-.18A.61.61,0,0,1,195.65.64Zm1.1,10.89h-.94V3.08h.94Z"/><path d="M204.35,9.38a1.33,1.33,0,0,0-.56-1.12,4.31,4.31,0,0,0-1.68-.66,7.57,7.57,0,0,1-1.75-.55,2.32,2.32,0,0,1-.92-.75,1.88,1.88,0,0,1-.3-1.08A2,2,0,0,1,200,3.57a3.38,3.38,0,0,1,2.14-.65,3.48,3.48,0,0,1,2.27.7,2.24,2.24,0,0,1,.86,1.82h-.94a1.51,1.51,0,0,0-.62-1.23,2.8,2.8,0,0,0-3-.08,1.27,1.27,0,0,0-.56,1.07,1.15,1.15,0,0,0,.46,1,4.9,4.9,0,0,0,1.7.64,8,8,0,0,1,1.84.62,2.39,2.39,0,0,1,.91.79,2,2,0,0,1,.3,1.12,2,2,0,0,1-.86,1.71,3.69,3.69,0,0,1-2.25.64,3.79,3.79,0,0,1-2.39-.71,2.2,2.2,0,0,1-.92-1.81h.94a1.62,1.62,0,0,0,.69,1.28,2.83,2.83,0,0,0,1.68.46,2.66,2.66,0,0,0,1.58-.43A1.29,1.29,0,0,0,204.35,9.38Z"/><path d="M206.88,7.18a5,5,0,0,1,.47-2.2,3.55,3.55,0,0,1,3.29-2.06,3.48,3.48,0,0,1,2.73,1.18,4.56,4.56,0,0,1,1,3.14v.2A5,5,0,0,1,214,9.64a3.53,3.53,0,0,1-1.33,1.51,3.65,3.65,0,0,1-2,.53,3.48,3.48,0,0,1-2.73-1.18,4.55,4.55,0,0,1-1.05-3.14Zm.94.26a3.84,3.84,0,0,0,.79,2.49,2.66,2.66,0,0,0,4.11,0,4,4,0,0,0,.79-2.57V7.18a4.31,4.31,0,0,0-.36-1.77,2.89,2.89,0,0,0-1-1.25,2.58,2.58,0,0,0-1.48-.44,2.5,2.5,0,0,0-2,1,4,4,0,0,0-.79,2.57Z"/><path d="M217.24,3.08l0,1.45a3.36,3.36,0,0,1,1.19-1.19A3.08,3.08,0,0,1,220,2.92a2.54,2.54,0,0,1,2,.77,3.46,3.46,0,0,1,.67,2.3v5.55h-.93V6a2.59,2.59,0,0,0-.48-1.69,1.88,1.88,0,0,0-1.51-.55,2.37,2.37,0,0,0-1.54.54,3.18,3.18,0,0,0-1,1.46v5.79h-.93V3.08Z"/><rect class="cls-1" y="122.91" width="306" height="26.7"/><rect class="cls-1" y="179.91" width="306" height="26.7"/><rect class="cls-1" y="236.91" width="306" height="26.7"/><rect class="cls-2" y="290.91" width="306" height="1.7"/><path d="M11,138.55H7.14l-.88,2.4H5.51l3.23-8.53h.69l3.23,8.53H11.9Zm-3.65-.61h3.42l-1.71-4.65Z"/><path d="M18.94,133H16v7.92h-.72V133H12.38v-.61h6.56Z"/><path d="M25.05,138.85a1.38,1.38,0,0,0-.5-1.12,5.26,5.26,0,0,0-1.82-.79,6.39,6.39,0,0,1-1.93-.81,2,2,0,0,1-.06-3.22,3.31,3.31,0,0,1,2.06-.61,3.42,3.42,0,0,1,1.52.33,2.49,2.49,0,0,1,1,.91,2.4,2.4,0,0,1,.37,1.31H25a1.79,1.79,0,0,0-.6-1.41,2.33,2.33,0,0,0-1.61-.53,2.53,2.53,0,0,0-1.56.44,1.36,1.36,0,0,0-.58,1.14,1.29,1.29,0,0,0,.52,1.06,4.84,4.84,0,0,0,1.67.72,7.86,7.86,0,0,1,1.74.65,2.48,2.48,0,0,1,.89.81,2,2,0,0,1,.3,1.11,1.93,1.93,0,0,1-.81,1.62,3.43,3.43,0,0,1-2.12.61,4.16,4.16,0,0,1-1.66-.32,2.53,2.53,0,0,1-1.14-.9,2.33,2.33,0,0,1-.39-1.33h.72a1.7,1.7,0,0,0,.67,1.42,2.85,2.85,0,0,0,1.79.52,2.66,2.66,0,0,0,1.6-.44A1.37,1.37,0,0,0,25.05,138.85Z"/><path d="M35.32,140.94H30v-.54l2.92-3.32a7.67,7.67,0,0,0,1-1.38,2.31,2.31,0,0,0,.28-1.06,1.72,1.72,0,0,0-.47-1.28,1.77,1.77,0,0,0-1.31-.47,1.84,1.84,0,0,0-1.39.55,2,2,0,0,0-.53,1.43h-.7a2.68,2.68,0,0,1,.33-1.31,2.34,2.34,0,0,1,.93-.93,2.75,2.75,0,0,1,1.37-.34,2.58,2.58,0,0,1,1.83.62,2.18,2.18,0,0,1,.66,1.68,2.84,2.84,0,0,1-.37,1.31,9.71,9.71,0,0,1-1.31,1.77l-2.38,2.69h4.48Z"/><path d="M41.77,137.39a4.72,4.72,0,0,1-.66,2.74,2.51,2.51,0,0,1-3.89,0,4.55,4.55,0,0,1-.69-2.67v-1.53a4.63,4.63,0,0,1,.67-2.72,2.53,2.53,0,0,1,3.88,0,4.47,4.47,0,0,1,.69,2.63Zm-.7-1.53a4.16,4.16,0,0,0-.48-2.21,1.76,1.76,0,0,0-2.87,0,4,4,0,0,0-.49,2.16v1.68a4.16,4.16,0,0,0,.5,2.23,1.6,1.6,0,0,0,1.44.77,1.58,1.58,0,0,0,1.42-.76,4.17,4.17,0,0,0,.49-2.21Z"/><path d="M48.42,137.39a4.72,4.72,0,0,1-.66,2.74,2.51,2.51,0,0,1-3.89,0,4.55,4.55,0,0,1-.69-2.67v-1.53a4.63,4.63,0,0,1,.67-2.72,2.53,2.53,0,0,1,3.88,0,4.47,4.47,0,0,1,.69,2.63Zm-.7-1.53a4.16,4.16,0,0,0-.48-2.21,1.76,1.76,0,0,0-2.87,0,4,4,0,0,0-.49,2.16v1.68a4.16,4.16,0,0,0,.5,2.23,1.6,1.6,0,0,0,1.44.77,1.58,1.58,0,0,0,1.42-.76,4.17,4.17,0,0,0,.49-2.21Z"/><path d="M55.07,137.39a4.72,4.72,0,0,1-.66,2.74,2.51,2.51,0,0,1-3.89,0,4.55,4.55,0,0,1-.69-2.67v-1.53a4.63,4.63,0,0,1,.67-2.72,2.53,2.53,0,0,1,3.88,0,4.47,4.47,0,0,1,.69,2.63Zm-.7-1.53a4.16,4.16,0,0,0-.48-2.21,1.76,1.76,0,0,0-2.87,0,4,4,0,0,0-.49,2.16v1.68a4.16,4.16,0,0,0,.5,2.23,1.6,1.6,0,0,0,1.44.77,1.58,1.58,0,0,0,1.42-.76,4.17,4.17,0,0,0,.49-2.21Z"/><path d="M11,166.95H7.14l-.88,2.4H5.51l3.23-8.53h.69l3.23,8.53H11.9Zm-3.65-.61h3.42l-1.71-4.65Z"/><path d="M18.94,161.42H16v7.92h-.72v-7.92H12.38v-.61h6.56Z"/><path d="M25.05,167.25a1.38,1.38,0,0,0-.5-1.12,5.26,5.26,0,0,0-1.82-.79,6.39,6.39,0,0,1-1.93-.81,2,2,0,0,1-.06-3.22,3.31,3.31,0,0,1,2.06-.61,3.42,3.42,0,0,1,1.52.33,2.49,2.49,0,0,1,1,.91,2.4,2.4,0,0,1,.37,1.31H25a1.79,1.79,0,0,0-.6-1.41,2.33,2.33,0,0,0-1.61-.53,2.53,2.53,0,0,0-1.56.44,1.36,1.36,0,0,0-.58,1.14,1.29,1.29,0,0,0,.52,1.06,4.84,4.84,0,0,0,1.67.72,7.86,7.86,0,0,1,1.74.65,2.48,2.48,0,0,1,.89.81,2,2,0,0,1,.3,1.11,1.93,1.93,0,0,1-.81,1.62,3.43,3.43,0,0,1-2.12.61,4.16,4.16,0,0,1-1.66-.32,2.53,2.53,0,0,1-1.14-.9,2.33,2.33,0,0,1-.39-1.33h.72a1.7,1.7,0,0,0,.67,1.42,2.85,2.85,0,0,0,1.79.52,2.66,2.66,0,0,0,1.6-.44A1.37,1.37,0,0,0,25.05,167.25Z"/><path d="M33.24,169.34h-.7v-7.69l-2.32.86v-.66l2.91-1.08h.12Z"/><path d="M41.77,165.79a4.72,4.72,0,0,1-.66,2.74,2.51,2.51,0,0,1-3.89,0,4.55,4.55,0,0,1-.69-2.67v-1.53a4.63,4.63,0,0,1,.67-2.72,2.53,2.53,0,0,1,3.88,0,4.47,4.47,0,0,1,.69,2.63Zm-.7-1.53a4.16,4.16,0,0,0-.48-2.21,1.76,1.76,0,0,0-2.87,0,4,4,0,0,0-.49,2.16v1.68a4.16,4.16,0,0,0,.5,2.23,1.6,1.6,0,0,0,1.44.77,1.58,1.58,0,0,0,1.42-.76,4.17,4.17,0,0,0,.49-2.21Z"/><path d="M48.42,165.79a4.72,4.72,0,0,1-.66,2.74,2.51,2.51,0,0,1-3.89,0,4.55,4.55,0,0,1-.69-2.67v-1.53a4.63,4.63,0,0,1,.67-2.72,2.53,2.53,0,0,1,3.88,0,4.47,4.47,0,0,1,.69,2.63Zm-.7-1.53a4.16,4.16,0,0,0-.48-2.21,1.76,1.76,0,0,0-2.87,0,4,4,0,0,0-.49,2.16v1.68a4.16,4.16,0,0,0,.5,2.23,1.6,1.6,0,0,0,1.44.77,1.58,1.58,0,0,0,1.42-.76,4.17,4.17,0,0,0,.49-2.21Z"/><path d="M55.07,165.79a4.72,4.72,0,0,1-.66,2.74,2.51,2.51,0,0,1-3.89,0,4.55,4.55,0,0,1-.69-2.67v-1.53a4.63,4.63,0,0,1,.67-2.72,2.53,2.53,0,0,1,3.88,0,4.47,4.47,0,0,1,.69,2.63Zm-.7-1.53a4.16,4.16,0,0,0-.48-2.21A1.76,1.76,0,0,0,51,162a4,4,0,0,0-.49,2.16v1.68a4.16,4.16,0,0,0,.5,2.23,1.6,1.6,0,0,0,1.44.77,1.58,1.58,0,0,0,1.42-.76,4.17,4.17,0,0,0,.49-2.21Z"/><path d="M11,195.35H7.14l-.88,2.4H5.51l3.23-8.53h.69l3.23,8.53H11.9Zm-3.65-.61h3.42l-1.71-4.65Z"/><path d="M18.94,189.82H16v7.92h-.72v-7.92H12.38v-.61h6.56Z"/><path d="M25.05,195.65a1.38,1.38,0,0,0-.5-1.12,5.26,5.26,0,0,0-1.82-.79,6.39,6.39,0,0,1-1.93-.81,2,2,0,0,1-.06-3.22,3.31,3.31,0,0,1,2.06-.61,3.42,3.42,0,0,1,1.52.33,2.49,2.49,0,0,1,1,.91,2.4,2.4,0,0,1,.37,1.31H25a1.79,1.79,0,0,0-.6-1.41,2.33,2.33,0,0,0-1.61-.53,2.53,2.53,0,0,0-1.56.44,1.36,1.36,0,0,0-.58,1.14,1.29,1.29,0,0,0,.52,1.06,4.84,4.84,0,0,0,1.67.72,7.86,7.86,0,0,1,1.74.65,2.48,2.48,0,0,1,.89.81,2,2,0,0,1,.3,1.11,1.93,1.93,0,0,1-.81,1.62,3.43,3.43,0,0,1-2.12.61,4.16,4.16,0,0,1-1.66-.32,2.53,2.53,0,0,1-1.14-.9,2.33,2.33,0,0,1-.39-1.33h.72a1.7,1.7,0,0,0,.67,1.42,2.85,2.85,0,0,0,1.79.52,2.66,2.66,0,0,0,1.6-.44A1.37,1.37,0,0,0,25.05,195.65Z"/><path d="M34.35,193.79a2.64,2.64,0,0,1-.93.85,2.49,2.49,0,0,1-1.21.3,2.24,2.24,0,0,1-1.28-.37,2.45,2.45,0,0,1-.86-1,3.42,3.42,0,0,1-.3-1.45,3.56,3.56,0,0,1,.33-1.54,2.55,2.55,0,0,1,.91-1.08,2.62,2.62,0,0,1,3.34.52,4,4,0,0,1,.71,2.55v.63a5.25,5.25,0,0,1-1,3.47,3.72,3.72,0,0,1-3,1.16h-.13v-.61h.25a3.12,3.12,0,0,0,2.33-.87A3.71,3.71,0,0,0,34.35,193.79Zm-2.05.54a2.06,2.06,0,0,0,1.26-.42,2.26,2.26,0,0,0,.79-1.08v-.4a3.28,3.28,0,0,0-.54-2,1.74,1.74,0,0,0-1.46-.72,1.67,1.67,0,0,0-1.37.67,2.62,2.62,0,0,0-.53,1.69,2.55,2.55,0,0,0,.51,1.63A1.62,1.62,0,0,0,32.3,194.34Z"/><path d="M41.77,194.19a4.72,4.72,0,0,1-.66,2.74,2.51,2.51,0,0,1-3.89,0,4.55,4.55,0,0,1-.69-2.67v-1.53a4.63,4.63,0,0,1,.67-2.72,2.53,2.53,0,0,1,3.88,0,4.47,4.47,0,0,1,.69,2.63Zm-.7-1.53a4.16,4.16,0,0,0-.48-2.21,1.76,1.76,0,0,0-2.87,0,4,4,0,0,0-.49,2.16v1.68a4.16,4.16,0,0,0,.5,2.23,1.6,1.6,0,0,0,1.44.77,1.58,1.58,0,0,0,1.42-.76,4.17,4.17,0,0,0,.49-2.21Z"/><path d="M47.65,193.79a2.64,2.64,0,0,1-.93.85,2.49,2.49,0,0,1-1.21.3,2.24,2.24,0,0,1-1.28-.37,2.45,2.45,0,0,1-.86-1,3.42,3.42,0,0,1-.3-1.45,3.56,3.56,0,0,1,.33-1.54,2.55,2.55,0,0,1,.91-1.08,2.62,2.62,0,0,1,3.34.52,4,4,0,0,1,.71,2.55v.63a5.25,5.25,0,0,1-1,3.47,3.72,3.72,0,0,1-3,1.16h-.13v-.61h.25a3.12,3.12,0,0,0,2.33-.87A3.71,3.71,0,0,0,47.65,193.79Zm-2.05.54a2.06,2.06,0,0,0,1.26-.42,2.26,2.26,0,0,0,.79-1.08v-.4a3.28,3.28,0,0,0-.54-2,1.74,1.74,0,0,0-1.46-.72,1.67,1.67,0,0,0-1.37.67,2.62,2.62,0,0,0-.53,1.69,2.55,2.55,0,0,0,.51,1.63A1.62,1.62,0,0,0,45.6,194.34Z"/><path d="M11,223.75H7.14l-.88,2.4H5.51l3.23-8.53h.69l3.23,8.53H11.9Zm-3.65-.61h3.42l-1.71-4.65Z"/><path d="M18.94,218.22H16v7.92h-.72v-7.92H12.38v-.61h6.56Z"/><path d="M25.05,224a1.38,1.38,0,0,0-.5-1.12,5.26,5.26,0,0,0-1.82-.79,6.39,6.39,0,0,1-1.93-.81,2,2,0,0,1-.06-3.22,3.31,3.31,0,0,1,2.06-.61,3.42,3.42,0,0,1,1.52.33,2.49,2.49,0,0,1,1,.91,2.4,2.4,0,0,1,.37,1.31H25a1.79,1.79,0,0,0-.6-1.41,2.33,2.33,0,0,0-1.61-.53,2.53,2.53,0,0,0-1.56.44,1.36,1.36,0,0,0-.58,1.14,1.29,1.29,0,0,0,.52,1.06,4.84,4.84,0,0,0,1.67.72,7.86,7.86,0,0,1,1.74.65,2.48,2.48,0,0,1,.89.81,2,2,0,0,1,.3,1.11,1.93,1.93,0,0,1-.81,1.62,3.43,3.43,0,0,1-2.12.61,4.16,4.16,0,0,1-1.66-.32A2.53,2.53,0,0,1,20,225a2.33,2.33,0,0,1-.39-1.33h.72a1.7,1.7,0,0,0,.67,1.42,2.85,2.85,0,0,0,1.79.52,2.66,2.66,0,0,0,1.6-.44A1.37,1.37,0,0,0,25.05,224Z"/><path d="M34.35,222.19a2.64,2.64,0,0,1-.93.85,2.49,2.49,0,0,1-1.21.3,2.24,2.24,0,0,1-1.28-.37,2.45,2.45,0,0,1-.86-1,3.42,3.42,0,0,1-.3-1.45,3.56,3.56,0,0,1,.33-1.54,2.55,2.55,0,0,1,.91-1.08,2.62,2.62,0,0,1,3.34.52,4,4,0,0,1,.71,2.55v.63a5.25,5.25,0,0,1-1,3.47,3.72,3.72,0,0,1-3,1.16h-.13v-.61h.25a3.12,3.12,0,0,0,2.33-.87A3.71,3.71,0,0,0,34.35,222.19Zm-2.05.54a2.06,2.06,0,0,0,1.26-.42,2.26,2.26,0,0,0,.79-1.08v-.4a3.28,3.28,0,0,0-.54-2,1.74,1.74,0,0,0-1.46-.72,1.67,1.67,0,0,0-1.37.67,2.62,2.62,0,0,0-.53,1.69,2.55,2.55,0,0,0,.51,1.63A1.62,1.62,0,0,0,32.3,222.74Z"/><path d="M41.77,222.59a4.72,4.72,0,0,1-.66,2.74,2.51,2.51,0,0,1-3.89,0,4.55,4.55,0,0,1-.69-2.67v-1.53a4.63,4.63,0,0,1,.67-2.72,2.53,2.53,0,0,1,3.88,0,4.47,4.47,0,0,1,.69,2.63Zm-.7-1.53a4.16,4.16,0,0,0-.48-2.21,1.76,1.76,0,0,0-2.87,0,4,4,0,0,0-.49,2.16v1.68a4.16,4.16,0,0,0,.5,2.23,1.6,1.6,0,0,0,1.44.77,1.58,1.58,0,0,0,1.42-.76,4.17,4.17,0,0,0,.49-2.21Z"/><path d="M48.3,219.81a2,2,0,0,1-.39,1.19,2.25,2.25,0,0,1-1,.77,2.5,2.5,0,0,1,1.18.81,2,2,0,0,1,.45,1.3,2.18,2.18,0,0,1-.74,1.74,3.36,3.36,0,0,1-3.95,0,2.18,2.18,0,0,1-.74-1.74,2.1,2.1,0,0,1,.43-1.29,2.38,2.38,0,0,1,1.17-.82,2.18,2.18,0,0,1-1-.77,2,2,0,0,1-.37-1.19,2.18,2.18,0,0,1,.68-1.69,2.92,2.92,0,0,1,3.62,0A2.17,2.17,0,0,1,48.3,219.81Zm-.48,4.08a1.69,1.69,0,0,0-.57-1.31,2.32,2.32,0,0,0-2.9,0,1.69,1.69,0,0,0-.56,1.32,1.65,1.65,0,0,0,.54,1.3,2.48,2.48,0,0,0,2.94,0A1.64,1.64,0,0,0,47.82,223.89Zm-.22-4.08a1.63,1.63,0,0,0-.51-1.22,2,2,0,0,0-2.58,0,1.63,1.63,0,0,0-.5,1.24,1.56,1.56,0,0,0,.5,1.21,2.06,2.06,0,0,0,2.59,0A1.56,1.56,0,0,0,47.6,219.8Z"/><path d="M11,252.15H7.14l-.88,2.4H5.51L8.74,246h.69l3.23,8.53H11.9Zm-3.65-.61h3.42l-1.71-4.65Z"/><path d="M18.94,246.62H16v7.92h-.72v-7.92H12.38V246h6.56Z"/><path d="M25.05,252.45a1.38,1.38,0,0,0-.5-1.12,5.26,5.26,0,0,0-1.82-.79,6.39,6.39,0,0,1-1.93-.81,2,2,0,0,1-.06-3.22,3.31,3.31,0,0,1,2.06-.61,3.42,3.42,0,0,1,1.52.33,2.49,2.49,0,0,1,1,.91,2.4,2.4,0,0,1,.37,1.31H25a1.79,1.79,0,0,0-.6-1.41,2.33,2.33,0,0,0-1.61-.53,2.53,2.53,0,0,0-1.56.44,1.36,1.36,0,0,0-.58,1.14,1.29,1.29,0,0,0,.52,1.06,4.84,4.84,0,0,0,1.67.72,7.86,7.86,0,0,1,1.74.65,2.48,2.48,0,0,1,.89.81,2,2,0,0,1,.3,1.11,1.93,1.93,0,0,1-.81,1.62,3.43,3.43,0,0,1-2.12.61,4.16,4.16,0,0,1-1.66-.32,2.53,2.53,0,0,1-1.14-.9,2.33,2.33,0,0,1-.39-1.33h.72a1.7,1.7,0,0,0,.67,1.42,2.85,2.85,0,0,0,1.79.52,2.66,2.66,0,0,0,1.6-.44A1.37,1.37,0,0,0,25.05,252.45Z"/><path d="M35,248.21a2,2,0,0,1-.39,1.19,2.25,2.25,0,0,1-1,.77,2.5,2.5,0,0,1,1.18.81,2,2,0,0,1,.45,1.3,2.18,2.18,0,0,1-.74,1.74,3.36,3.36,0,0,1-3.95,0,2.18,2.18,0,0,1-.74-1.74,2.1,2.1,0,0,1,.43-1.29,2.38,2.38,0,0,1,1.17-.82,2.18,2.18,0,0,1-1-.77,2,2,0,0,1-.37-1.19,2.18,2.18,0,0,1,.68-1.69,2.92,2.92,0,0,1,3.62,0A2.17,2.17,0,0,1,35,248.21Zm-.48,4.08A1.69,1.69,0,0,0,34,251a2.32,2.32,0,0,0-2.9,0,1.69,1.69,0,0,0-.56,1.32,1.65,1.65,0,0,0,.54,1.3,2.48,2.48,0,0,0,2.94,0A1.64,1.64,0,0,0,34.52,252.29Zm-.22-4.08a1.63,1.63,0,0,0-.51-1.22,2,2,0,0,0-2.58,0,1.63,1.63,0,0,0-.5,1.24,1.56,1.56,0,0,0,.5,1.21,2.06,2.06,0,0,0,2.59,0A1.56,1.56,0,0,0,34.3,248.2Z"/><path d="M41.77,251a4.72,4.72,0,0,1-.66,2.74,2.51,2.51,0,0,1-3.89,0,4.55,4.55,0,0,1-.69-2.67v-1.53a4.63,4.63,0,0,1,.67-2.72,2.53,2.53,0,0,1,3.88,0,4.47,4.47,0,0,1,.69,2.63Zm-.7-1.53a4.16,4.16,0,0,0-.48-2.21,1.76,1.76,0,0,0-2.87,0,4,4,0,0,0-.49,2.16v1.68a4.16,4.16,0,0,0,.5,2.23,1.6,1.6,0,0,0,1.44.77,1.58,1.58,0,0,0,1.42-.76,4.17,4.17,0,0,0,.49-2.21Z"/><path d="M48.42,251a4.72,4.72,0,0,1-.66,2.74,2.51,2.51,0,0,1-3.89,0,4.55,4.55,0,0,1-.69-2.67v-1.53a4.63,4.63,0,0,1,.67-2.72,2.53,2.53,0,0,1,3.88,0,4.47,4.47,0,0,1,.69,2.63Zm-.7-1.53a4.16,4.16,0,0,0-.48-2.21,1.76,1.76,0,0,0-2.87,0,4,4,0,0,0-.49,2.16v1.68a4.16,4.16,0,0,0,.5,2.23,1.6,1.6,0,0,0,1.44.77,1.58,1.58,0,0,0,1.42-.76,4.17,4.17,0,0,0,.49-2.21Z"/><path d="M11,280.55H7.14l-.88,2.4H5.51l3.23-8.53h.69l3.23,8.53H11.9Zm-3.65-.61h3.42l-1.71-4.65Z"/><path d="M18.94,275H16v7.92h-.72V275H12.38v-.61h6.56Z"/><path d="M25.05,280.85a1.38,1.38,0,0,0-.5-1.12,5.26,5.26,0,0,0-1.82-.79,6.39,6.39,0,0,1-1.93-.81,2,2,0,0,1-.06-3.22,3.31,3.31,0,0,1,2.06-.61,3.42,3.42,0,0,1,1.52.33,2.49,2.49,0,0,1,1,.91,2.4,2.4,0,0,1,.37,1.31H25a1.79,1.79,0,0,0-.6-1.41,2.33,2.33,0,0,0-1.61-.53,2.53,2.53,0,0,0-1.56.44,1.36,1.36,0,0,0-.58,1.14,1.29,1.29,0,0,0,.52,1.06,4.84,4.84,0,0,0,1.67.73,7.84,7.84,0,0,1,1.74.65,2.48,2.48,0,0,1,.89.81,2,2,0,0,1,.3,1.11,1.93,1.93,0,0,1-.81,1.62,3.43,3.43,0,0,1-2.12.61,4.16,4.16,0,0,1-1.66-.32,2.53,2.53,0,0,1-1.14-.9,2.33,2.33,0,0,1-.39-1.33h.72a1.7,1.7,0,0,0,.67,1.42,2.85,2.85,0,0,0,1.79.52,2.66,2.66,0,0,0,1.6-.44A1.37,1.37,0,0,0,25.05,280.85Z"/><path d="M30.45,278.57l.42-4.16h4.27v.65H31.47l-.3,2.88a2.77,2.77,0,0,1,1.61-.47,2.37,2.37,0,0,1,1.84.75,2.85,2.85,0,0,1,.69,2,3,3,0,0,1-.67,2.09,2.4,2.4,0,0,1-1.88.74,2.6,2.6,0,0,1-1.8-.62,2.54,2.54,0,0,1-.79-1.74h.67a2,2,0,0,0,.59,1.32,1.9,1.9,0,0,0,1.33.45,1.66,1.66,0,0,0,1.38-.58,2.58,2.58,0,0,0,.47-1.65,2.23,2.23,0,0,0-.52-1.53,1.8,1.8,0,0,0-1.42-.59,2.69,2.69,0,0,0-.87.13,2.37,2.37,0,0,0-.78.49Z"/><path d="M41.77,279.39a4.72,4.72,0,0,1-.66,2.74,2.51,2.51,0,0,1-3.89,0,4.55,4.55,0,0,1-.69-2.67v-1.53a4.63,4.63,0,0,1,.67-2.72,2.53,2.53,0,0,1,3.88,0,4.47,4.47,0,0,1,.69,2.63Zm-.7-1.53a4.16,4.16,0,0,0-.48-2.21,1.76,1.76,0,0,0-2.87,0,4,4,0,0,0-.49,2.16v1.68a4.16,4.16,0,0,0,.5,2.23,1.6,1.6,0,0,0,1.44.77,1.58,1.58,0,0,0,1.42-.76,4.17,4.17,0,0,0,.49-2.21Z"/><path d="M48.42,279.39a4.72,4.72,0,0,1-.66,2.74,2.51,2.51,0,0,1-3.89,0,4.55,4.55,0,0,1-.69-2.67v-1.53a4.63,4.63,0,0,1,.67-2.72,2.53,2.53,0,0,1,3.88,0,4.47,4.47,0,0,1,.69,2.63Zm-.7-1.53a4.16,4.16,0,0,0-.48-2.21,1.76,1.76,0,0,0-2.87,0,4,4,0,0,0-.49,2.16v1.68a4.16,4.16,0,0,0,.5,2.23,1.6,1.6,0,0,0,1.44.77,1.58,1.58,0,0,0,1.42-.76,4.17,4.17,0,0,0,.49-2.21Z"/><path d="M62.32,114.5v2H61.9v-5h1.7a1.79,1.79,0,0,1,1.23.4,1.38,1.38,0,0,1,.45,1.09,1.36,1.36,0,0,1-.43,1.08,1.84,1.84,0,0,1-1.25.38Zm0-.36h1.27a1.35,1.35,0,0,0,.93-.29,1,1,0,0,0,.32-.81,1.09,1.09,0,0,0-.32-.82,1.28,1.28,0,0,0-.91-.31h-1.3Z"/><path d="M68.49,116.06a1.33,1.33,0,0,1-1.18.54,1.14,1.14,0,0,1-.9-.34,1.5,1.5,0,0,1-.31-1v-2.41h.41v2.35q0,1.06.85,1.06a1,1,0,0,0,1.12-.73v-2.68h.41v3.7h-.4Z"/><path d="M71.67,113.18l-.28,0a1,1,0,0,0-.65.21,1.17,1.17,0,0,0-.38.62v2.54H70v-3.7h.4v.59a1.09,1.09,0,0,1,1-.66.67.67,0,0,1,.27,0Z"/><path d="M73.68,116.6a1.61,1.61,0,0,1-.85-.23,1.58,1.58,0,0,1-.59-.65,2,2,0,0,1-.21-.93v-.15a2.17,2.17,0,0,1,.21-1,1.65,1.65,0,0,1,.58-.67,1.42,1.42,0,0,1,.8-.24,1.33,1.33,0,0,1,1.07.46,1.86,1.86,0,0,1,.4,1.26v.23H72.43v.08a1.55,1.55,0,0,0,.36,1,1.15,1.15,0,0,0,.91.42,1.33,1.33,0,0,0,.58-.12,1.28,1.28,0,0,0,.46-.38l.26.19A1.49,1.49,0,0,1,73.68,116.6Zm-.08-3.49a1,1,0,0,0-.78.34,1.56,1.56,0,0,0-.38.91h2.22v0a1.36,1.36,0,0,0-.3-.87A.94.94,0,0,0,73.61,113.11Z"/><path d="M78.08,115.59a.58.58,0,0,0-.24-.49,1.89,1.89,0,0,0-.74-.29,3.31,3.31,0,0,1-.76-.24,1,1,0,0,1-.4-.33.83.83,0,0,1-.13-.47.88.88,0,0,1,.37-.72,1.48,1.48,0,0,1,.94-.29,1.52,1.52,0,0,1,1,.31,1,1,0,0,1,.37.8h-.41a.66.66,0,0,0-.27-.54,1.23,1.23,0,0,0-1.33,0,.55.55,0,0,0-.24.47.5.5,0,0,0,.2.43,2.16,2.16,0,0,0,.74.28,3.48,3.48,0,0,1,.81.27,1,1,0,0,1,.4.35.95.95,0,0,1-.25,1.24,1.61,1.61,0,0,1-1,.28,1.66,1.66,0,0,1-1-.31,1,1,0,0,1-.4-.79h.41a.71.71,0,0,0,.3.56,1.24,1.24,0,0,0,.74.2,1.16,1.16,0,0,0,.69-.19A.56.56,0,0,0,78.08,115.59Z"/><path d="M80,111.89v.95h.77v.33H80v2.47a.77.77,0,0,0,.11.46.43.43,0,0,0,.37.15l.33,0,0,.33a1.33,1.33,0,0,1-.44.06.73.73,0,0,1-.61-.24,1.15,1.15,0,0,1-.19-.72v-2.47H79v-.33h.68v-.95Z"/><path d="M83.37,113.18l-.28,0a1,1,0,0,0-.65.21,1.17,1.17,0,0,0-.38.62v2.54h-.41v-3.7h.4v.59a1.09,1.09,0,0,1,1-.66.67.67,0,0,1,.27,0Z"/><path d="M85.38,116.6a1.61,1.61,0,0,1-.85-.23,1.58,1.58,0,0,1-.59-.65,2,2,0,0,1-.21-.93v-.15a2.17,2.17,0,0,1,.21-1,1.65,1.65,0,0,1,.58-.67,1.42,1.42,0,0,1,.8-.24,1.33,1.33,0,0,1,1.07.46,1.86,1.86,0,0,1,.4,1.26v.23H84.13v.08a1.55,1.55,0,0,0,.36,1,1.15,1.15,0,0,0,.91.42,1.33,1.33,0,0,0,.58-.12,1.28,1.28,0,0,0,.46-.38l.26.19A1.49,1.49,0,0,1,85.38,116.6Zm-.08-3.49a1,1,0,0,0-.78.34,1.56,1.56,0,0,0-.38.91h2.22v0a1.36,1.36,0,0,0-.3-.87A.94.94,0,0,0,85.31,113.11Z"/><path d="M89.9,116.53a1.93,1.93,0,0,1-.08-.52,1.42,1.42,0,0,1-.55.43,1.67,1.67,0,0,1-.71.15,1.24,1.24,0,0,1-.86-.3,1,1,0,0,1-.33-.75,1,1,0,0,1,.45-.85,2.16,2.16,0,0,1,1.25-.31h.74V114a.81.81,0,0,0-.24-.62,1,1,0,0,0-.71-.23,1.11,1.11,0,0,0-.71.22.65.65,0,0,0-.28.53h-.41a1,1,0,0,1,.41-.76,1.58,1.58,0,0,1,1-.32,1.44,1.44,0,0,1,1,.31,1.11,1.11,0,0,1,.37.86v1.75a2.17,2.17,0,0,0,.11.8v0Zm-1.29-.29a1.37,1.37,0,0,0,.73-.2,1.17,1.17,0,0,0,.47-.53v-.81h-.73a1.83,1.83,0,0,0-1,.22.67.67,0,0,0-.35.6A.66.66,0,0,0,88,116,.87.87,0,0,0,88.61,116.24Z"/><path d="M91.69,112.83v.6a1.37,1.37,0,0,1,.51-.5,1.4,1.4,0,0,1,.68-.17,1,1,0,0,1,1.11.72,1.39,1.39,0,0,1,.53-.53,1.46,1.46,0,0,1,.73-.19q1.19,0,1.21,1.3v2.47h-.41v-2.44a1.1,1.1,0,0,0-.21-.73.87.87,0,0,0-.69-.24,1.09,1.09,0,0,0-.75.29,1,1,0,0,0-.34.68v2.45h-.41v-2.47a1,1,0,0,0-.22-.71.89.89,0,0,0-.68-.23,1,1,0,0,0-.66.22,1.29,1.29,0,0,0-.41.65v2.54h-.41v-3.7Z"/><path d="M97.28,114.4a2.27,2.27,0,0,1,.27-1.1,2.05,2.05,0,0,1,.76-.8,2,2,0,0,1,2.09,0,2.05,2.05,0,0,1,.76.8,2.34,2.34,0,0,1,0,2.19,2.09,2.09,0,0,1-.75.81,2,2,0,0,1-2.12,0,2.09,2.09,0,0,1-.75-.81A2.29,2.29,0,0,1,97.28,114.4Zm.25,0a2,2,0,0,0,.24,1,1.85,1.85,0,0,0,.67.71,1.75,1.75,0,0,0,1.83,0,1.82,1.82,0,0,0,.67-.71,2,2,0,0,0,.24-1,2,2,0,0,0-.24-1,1.83,1.83,0,0,0-.66-.71,1.76,1.76,0,0,0-1.85,0,1.84,1.84,0,0,0-.67.71A2,2,0,0,0,97.53,114.39Zm1.36.18v1H98.6v-2.46h.76a1.06,1.06,0,0,1,.66.18.65.65,0,0,1,.23.55.61.61,0,0,1-.41.58.5.5,0,0,1,.29.24.83.83,0,0,1,.08.38,3.12,3.12,0,0,0,0,.32.68.68,0,0,0,0,.17v0H100a2,2,0,0,1,0-.53.51.51,0,0,0-.11-.37.52.52,0,0,0-.37-.11Zm0-.26h.53a.61.61,0,0,0,.39-.12.4.4,0,0,0,.15-.33.44.44,0,0,0-.13-.36.71.71,0,0,0-.44-.11h-.51Z"/><path d="M123.61,110.75h-1.24v1.78H122v-4.27h1.39a1.58,1.58,0,0,1,1.07.33,1.26,1.26,0,0,1,.14,1.65,1.23,1.23,0,0,1-.64.43l1.07,1.82v0h-.38Zm-1.24-.3h1.1a1,1,0,0,0,.73-.26,1,1,0,0,0,0-1.37,1.19,1.19,0,0,0-.81-.25h-1Z"/><path d="M127,112.59a1.38,1.38,0,0,1-.73-.2,1.36,1.36,0,0,1-.51-.56,1.73,1.73,0,0,1-.18-.8v-.13a1.87,1.87,0,0,1,.18-.82,1.41,1.41,0,0,1,.49-.58,1.22,1.22,0,0,1,.69-.21,1.14,1.14,0,0,1,.92.39,1.6,1.6,0,0,1,.34,1.08v.2H125.9V111a1.33,1.33,0,0,0,.31.9,1,1,0,0,0,.78.36,1.14,1.14,0,0,0,.5-.1,1.1,1.1,0,0,0,.39-.33l.22.17A1.28,1.28,0,0,1,127,112.59Zm-.06-3a.88.88,0,0,0-.67.29,1.34,1.34,0,0,0-.33.78h1.9v0a1.16,1.16,0,0,0-.26-.74A.81.81,0,0,0,126.91,109.6Z"/><path d="M129.16,109.36v.52a1.17,1.17,0,0,1,.44-.43,1.21,1.21,0,0,1,.59-.14.89.89,0,0,1,1,.62,1.19,1.19,0,0,1,.45-.46,1.26,1.26,0,0,1,.63-.16q1,0,1,1.11v2.12h-.35v-2.09a.94.94,0,0,0-.18-.63.75.75,0,0,0-.59-.21.93.93,0,0,0-.64.24.86.86,0,0,0-.29.58v2.1h-.35v-2.12a.87.87,0,0,0-.19-.61.76.76,0,0,0-.58-.2.88.88,0,0,0-.57.19,1.11,1.11,0,0,0-.35.56v2.17h-.35v-3.17Z"/><path d="M134,110.9a1.87,1.87,0,0,1,.18-.82,1.33,1.33,0,0,1,1.23-.77,1.3,1.3,0,0,1,1,.44,1.71,1.71,0,0,1,.39,1.18V111a1.88,1.88,0,0,1-.18.83,1.32,1.32,0,0,1-.5.57,1.37,1.37,0,0,1-.74.2,1.31,1.31,0,0,1-1-.44A1.71,1.71,0,0,1,134,111Zm.35.1a1.44,1.44,0,0,0,.29.93,1,1,0,0,0,1.54,0,1.49,1.49,0,0,0,.29-1v-.07a1.61,1.61,0,0,0-.13-.67,1.08,1.08,0,0,0-.38-.47,1,1,0,0,0-.56-.17.94.94,0,0,0-.76.37,1.49,1.49,0,0,0-.3,1Z"/><path d="M138.06,108.55v.81h.66v.29h-.66v2.11a.66.66,0,0,0,.1.39.37.37,0,0,0,.32.13l.28,0v.28a1.15,1.15,0,0,1-.37,0,.63.63,0,0,1-.52-.21,1,1,0,0,1-.16-.62v-2.12h-.58v-.29h.58v-.81Z"/><path d="M140.67,112.59a1.38,1.38,0,0,1-.73-.2,1.36,1.36,0,0,1-.51-.56,1.73,1.73,0,0,1-.18-.8v-.13a1.87,1.87,0,0,1,.18-.82,1.41,1.41,0,0,1,.49-.58,1.22,1.22,0,0,1,.69-.21,1.14,1.14,0,0,1,.92.39,1.6,1.6,0,0,1,.34,1.08v.2H139.6V111a1.33,1.33,0,0,0,.31.9,1,1,0,0,0,.78.36,1.14,1.14,0,0,0,.5-.1,1.1,1.1,0,0,0,.39-.33l.22.17A1.28,1.28,0,0,1,140.67,112.59Zm-.06-3a.88.88,0,0,0-.67.29,1.34,1.34,0,0,0-.33.78h1.9v0a1.16,1.16,0,0,0-.26-.74A.81.81,0,0,0,140.61,109.6Z"/><path d="M125.77,117.4a1.53,1.53,0,0,1-.48,1,1.59,1.59,0,0,1-1.09.36,1.5,1.5,0,0,1-.84-.24,1.55,1.55,0,0,1-.56-.67,2.4,2.4,0,0,1-.2-1v-.55a2.42,2.42,0,0,1,.2-1,1.53,1.53,0,0,1,.57-.68,1.56,1.56,0,0,1,.86-.24,1.53,1.53,0,0,1,1.08.37,1.55,1.55,0,0,1,.46,1h-.36a1.09,1.09,0,0,0-1.18-1.09,1.12,1.12,0,0,0-.92.43,1.88,1.88,0,0,0-.34,1.2v.52a1.9,1.9,0,0,0,.34,1.18,1.08,1.08,0,0,0,.91.44,1.2,1.2,0,0,0,.85-.27,1.3,1.3,0,0,0,.35-.81Z"/><path d="M126.37,117.1a1.87,1.87,0,0,1,.18-.82,1.33,1.33,0,0,1,1.23-.77,1.3,1.3,0,0,1,1,.44,1.71,1.71,0,0,1,.39,1.18v.07a1.88,1.88,0,0,1-.18.83,1.32,1.32,0,0,1-.5.57,1.37,1.37,0,0,1-.74.2,1.31,1.31,0,0,1-1-.44,1.71,1.71,0,0,1-.39-1.18Zm.35.1a1.44,1.44,0,0,0,.29.93,1,1,0,0,0,1.54,0,1.49,1.49,0,0,0,.29-1v-.07a1.61,1.61,0,0,0-.13-.67,1.08,1.08,0,0,0-.38-.47,1,1,0,0,0-.56-.17.94.94,0,0,0-.76.37,1.49,1.49,0,0,0-.3,1Z"/><path d="M130.26,115.56v.54a1.26,1.26,0,0,1,.45-.45,1.16,1.16,0,0,1,.59-.15,1,1,0,0,1,.76.29,1.29,1.29,0,0,1,.25.86v2.08H132v-2.08a1,1,0,0,0-.18-.63.71.71,0,0,0-.57-.21.89.89,0,0,0-.58.2,1.19,1.19,0,0,0-.37.55v2.17h-.35v-3.17Z"/><path d="M133.77,114.75v.81h.66v.29h-.66V118a.66.66,0,0,0,.1.39.37.37,0,0,0,.32.13l.28,0v.28a1.15,1.15,0,0,1-.37,0,.63.63,0,0,1-.52-.21,1,1,0,0,1-.16-.62v-2.12h-.58v-.29h.58v-.81Z"/><path d="M136.61,115.86l-.24,0a.86.86,0,0,0-.56.18,1,1,0,0,0-.32.53v2.18h-.35v-3.17h.34v.5a.93.93,0,0,1,.89-.56.58.58,0,0,1,.23,0Z"/><path d="M136.91,117.1a1.87,1.87,0,0,1,.18-.82,1.33,1.33,0,0,1,1.23-.77,1.3,1.3,0,0,1,1,.44,1.71,1.71,0,0,1,.39,1.18v.07a1.88,1.88,0,0,1-.18.83,1.32,1.32,0,0,1-.5.57,1.37,1.37,0,0,1-.74.2,1.31,1.31,0,0,1-1-.44,1.71,1.71,0,0,1-.39-1.18Zm.35.1a1.44,1.44,0,0,0,.29.93,1,1,0,0,0,1.54,0,1.49,1.49,0,0,0,.29-1v-.07a1.61,1.61,0,0,0-.13-.67,1.08,1.08,0,0,0-.38-.47,1,1,0,0,0-.56-.17.94.94,0,0,0-.76.37,1.49,1.49,0,0,0-.3,1Z"/><path d="M140.86,118.73h-.35v-4.5h.35Z"/><path d="M172.54,111.2a1.53,1.53,0,0,1-.48,1,1.59,1.59,0,0,1-1.09.36,1.5,1.5,0,0,1-.84-.24,1.55,1.55,0,0,1-.56-.67,2.4,2.4,0,0,1-.2-1v-.55a2.42,2.42,0,0,1,.2-1,1.53,1.53,0,0,1,.57-.68,1.56,1.56,0,0,1,.86-.24,1.53,1.53,0,0,1,1.08.37,1.55,1.55,0,0,1,.46,1h-.36a1.09,1.09,0,0,0-1.18-1.09,1.12,1.12,0,0,0-.92.43,1.88,1.88,0,0,0-.34,1.2v.52a1.9,1.9,0,0,0,.34,1.18,1.08,1.08,0,0,0,.91.44,1.2,1.2,0,0,0,.85-.27,1.3,1.3,0,0,0,.35-.81Z"/><path d="M173.14,110.9a1.87,1.87,0,0,1,.18-.82,1.33,1.33,0,0,1,1.23-.77,1.3,1.3,0,0,1,1,.44,1.71,1.71,0,0,1,.39,1.18V111a1.88,1.88,0,0,1-.18.83,1.32,1.32,0,0,1-.5.57,1.37,1.37,0,0,1-.74.2,1.31,1.31,0,0,1-1-.44,1.71,1.71,0,0,1-.39-1.18Zm.35.1a1.44,1.44,0,0,0,.29.93,1,1,0,0,0,1.54,0,1.49,1.49,0,0,0,.29-1v-.07a1.61,1.61,0,0,0-.13-.67,1.08,1.08,0,0,0-.38-.47,1,1,0,0,0-.56-.17.94.94,0,0,0-.76.37,1.49,1.49,0,0,0-.3,1Z"/><path d="M177,109.36v.54a1.26,1.26,0,0,1,.45-.45,1.16,1.16,0,0,1,.59-.15,1,1,0,0,1,.76.29,1.29,1.29,0,0,1,.25.86v2.08h-.35v-2.08a1,1,0,0,0-.18-.63.71.71,0,0,0-.57-.21.89.89,0,0,0-.58.2,1.19,1.19,0,0,0-.37.55v2.17h-.35v-3.17Z"/><path d="M180.53,108.55v.81h.66v.29h-.66v2.11a.66.66,0,0,0,.1.39.37.37,0,0,0,.32.13l.28,0v.28a1.15,1.15,0,0,1-.37,0,.63.63,0,0,1-.52-.21,1,1,0,0,1-.16-.62v-2.12h-.58v-.29h.58v-.81Z"/><path d="M181.89,108.45a.24.24,0,0,1,.06-.17.23.23,0,0,1,.18-.07.24.24,0,0,1,.18.07.23.23,0,0,1,.07.17.23.23,0,0,1-.07.17.24.24,0,0,1-.18.07.23.23,0,0,1-.18-.07A.23.23,0,0,1,181.89,108.45Zm.41,4.09H182v-3.17h.35Z"/><path d="M183.59,109.36v.54a1.26,1.26,0,0,1,.45-.45,1.16,1.16,0,0,1,.59-.15,1,1,0,0,1,.76.29,1.29,1.29,0,0,1,.25.86v2.08h-.35v-2.08a1,1,0,0,0-.18-.63.71.71,0,0,0-.57-.21.89.89,0,0,0-.58.2,1.19,1.19,0,0,0-.37.55v2.17h-.35v-3.17Z"/><path d="M188.59,112.13a1.14,1.14,0,0,1-1,.46,1,1,0,0,1-.77-.29,1.29,1.29,0,0,1-.27-.87v-2.06h.35v2q0,.91.73.91a.9.9,0,0,0,1-.63v-2.29h.35v3.17h-.34Z"/><path d="M189.66,110.9a1.87,1.87,0,0,1,.18-.82,1.33,1.33,0,0,1,1.23-.77,1.3,1.3,0,0,1,1,.44,1.71,1.71,0,0,1,.39,1.18V111a1.88,1.88,0,0,1-.18.83,1.32,1.32,0,0,1-.5.57,1.37,1.37,0,0,1-.74.2,1.31,1.31,0,0,1-1-.44,1.71,1.71,0,0,1-.39-1.18Zm.35.1a1.44,1.44,0,0,0,.29.93,1,1,0,0,0,1.54,0,1.49,1.49,0,0,0,.29-1v-.07a1.61,1.61,0,0,0-.13-.67,1.08,1.08,0,0,0-.38-.47,1,1,0,0,0-.56-.17.94.94,0,0,0-.76.37,1.49,1.49,0,0,0-.3,1Z"/><path d="M195.25,112.13a1.14,1.14,0,0,1-1,.46,1,1,0,0,1-.77-.29,1.29,1.29,0,0,1-.27-.87v-2.06h.35v2q0,.91.73.91a.9.9,0,0,0,1-.63v-2.29h.35v3.17h-.34Z"/><path d="M198.41,111.73a.5.5,0,0,0-.21-.42,1.62,1.62,0,0,0-.63-.25,2.85,2.85,0,0,1-.65-.21.87.87,0,0,1-.35-.28.71.71,0,0,1-.11-.4.75.75,0,0,1,.31-.62,1.27,1.27,0,0,1,.8-.24,1.3,1.3,0,0,1,.85.26.84.84,0,0,1,.32.68h-.35a.57.57,0,0,0-.23-.46,1.05,1.05,0,0,0-1.14,0,.47.47,0,0,0-.21.4.43.43,0,0,0,.17.37,1.84,1.84,0,0,0,.64.24,3,3,0,0,1,.69.23.9.9,0,0,1,.34.3.81.81,0,0,1-.21,1.06,1.38,1.38,0,0,1-.85.24,1.42,1.42,0,0,1-.9-.27.83.83,0,0,1-.34-.68h.35a.61.61,0,0,0,.26.48,1.06,1.06,0,0,0,.63.17,1,1,0,0,0,.59-.16A.48.48,0,0,0,198.41,111.73Z"/><path d="M174.47,118.73h-.36v-2h-2.44v2h-.36v-4.27h.36v1.92h2.44v-1.92h.36Z"/><path d="M175.27,117.1a1.87,1.87,0,0,1,.18-.82,1.33,1.33,0,0,1,1.23-.77,1.3,1.3,0,0,1,1,.44,1.71,1.71,0,0,1,.39,1.18v.07a1.88,1.88,0,0,1-.18.83,1.32,1.32,0,0,1-.5.57,1.37,1.37,0,0,1-.74.2,1.31,1.31,0,0,1-1-.44,1.71,1.71,0,0,1-.39-1.18Zm.35.1a1.44,1.44,0,0,0,.29.93,1,1,0,0,0,1.54,0,1.49,1.49,0,0,0,.29-1v-.07a1.61,1.61,0,0,0-.13-.67,1.08,1.08,0,0,0-.38-.47,1,1,0,0,0-.56-.17.94.94,0,0,0-.76.37,1.49,1.49,0,0,0-.3,1Z"/><path d="M179.37,114.75v.81H180v.29h-.66V118a.66.66,0,0,0,.1.39.37.37,0,0,0,.32.13l.28,0v.28a1.15,1.15,0,0,1-.37,0,.63.63,0,0,1-.52-.21A1,1,0,0,1,179,118v-2.12h-.58v-.29H179v-.81Z"/><path d="M183.09,117.58l.13.66.16-.63.93-3.14h.33l.91,3.14.16.64.14-.67.77-3.11H187l-1.09,4.27h-.35l-1-3.34-.11-.42-.11.42-1,3.34H183l-1.09-4.27h.37Z"/><path d="M189.5,118.73a1.66,1.66,0,0,1-.07-.44,1.22,1.22,0,0,1-.47.37,1.44,1.44,0,0,1-.6.13,1.06,1.06,0,0,1-.74-.25.83.83,0,0,1-.28-.64.85.85,0,0,1,.39-.73,1.85,1.85,0,0,1,1.07-.27h.64v-.36a.69.69,0,0,0-.21-.53.87.87,0,0,0-.61-.19,1,1,0,0,0-.61.19.56.56,0,0,0-.24.45h-.35a.82.82,0,0,1,.35-.65,1.35,1.35,0,0,1,.86-.28,1.23,1.23,0,0,1,.84.27,1,1,0,0,1,.31.74V118a1.86,1.86,0,0,0,.1.69v0Zm-1.1-.25a1.18,1.18,0,0,0,.63-.17,1,1,0,0,0,.4-.45v-.7h-.63a1.57,1.57,0,0,0-.82.19.58.58,0,0,0-.3.51.57.57,0,0,0,.2.44A.74.74,0,0,0,188.4,118.48Z"/><path d="M191.26,114.75v.81h.66v.29h-.66V118a.66.66,0,0,0,.1.39.37.37,0,0,0,.32.13l.28,0v.28a1.15,1.15,0,0,1-.37,0,.63.63,0,0,1-.52-.21,1,1,0,0,1-.16-.62v-2.12h-.58v-.29h.58v-.81Z"/><path d="M193.87,118.79a1.38,1.38,0,0,1-.73-.2,1.36,1.36,0,0,1-.51-.56,1.73,1.73,0,0,1-.18-.8v-.13a1.87,1.87,0,0,1,.18-.82,1.41,1.41,0,0,1,.49-.58,1.22,1.22,0,0,1,.69-.21,1.14,1.14,0,0,1,.92.39,1.6,1.6,0,0,1,.34,1.08v.2h-2.26v.07a1.33,1.33,0,0,0,.31.9,1,1,0,0,0,.78.36,1.14,1.14,0,0,0,.5-.1,1.1,1.1,0,0,0,.39-.33l.22.17A1.28,1.28,0,0,1,193.87,118.79Zm-.06-3a.88.88,0,0,0-.67.29,1.34,1.34,0,0,0-.33.78h1.9v0a1.16,1.16,0,0,0-.26-.74A.81.81,0,0,0,193.8,115.8Z"/><path d="M197.2,115.86l-.24,0a.86.86,0,0,0-.56.18,1,1,0,0,0-.32.53v2.18h-.35v-3.17h.34v.5a.93.93,0,0,1,.89-.56.58.58,0,0,1,.23,0Z"/><path d="M219.32,116.53v-5h1.39a2.17,2.17,0,0,1,1.1.28,1.92,1.92,0,0,1,.76.8,2.51,2.51,0,0,1,.27,1.18v.46a2.51,2.51,0,0,1-.27,1.18,1.92,1.92,0,0,1-.76.8,2.23,2.23,0,0,1-1.13.28Zm.42-4.62v4.27h.94a1.62,1.62,0,0,0,1.26-.52,2,2,0,0,0,.48-1.41v-.44a2,2,0,0,0-.47-1.37,1.6,1.6,0,0,0-1.23-.52Z"/><path d="M225.24,116.6a1.61,1.61,0,0,1-.85-.23,1.58,1.58,0,0,1-.59-.65,2,2,0,0,1-.21-.93v-.15a2.17,2.17,0,0,1,.21-1,1.65,1.65,0,0,1,.58-.67,1.42,1.42,0,0,1,.8-.24,1.33,1.33,0,0,1,1.07.46,1.86,1.86,0,0,1,.4,1.26v.23H224v.08a1.55,1.55,0,0,0,.36,1,1.15,1.15,0,0,0,.91.42,1.33,1.33,0,0,0,.58-.12,1.28,1.28,0,0,0,.46-.38l.26.19A1.49,1.49,0,0,1,225.24,116.6Zm-.08-3.49a1,1,0,0,0-.78.34,1.56,1.56,0,0,0-.38.91h2.22v0a1.36,1.36,0,0,0-.3-.87A.94.94,0,0,0,225.17,113.11Z"/><path d="M227.2,114.63a2.17,2.17,0,0,1,.21-1,1.55,1.55,0,0,1,1.44-.9,1.52,1.52,0,0,1,1.2.52,2,2,0,0,1,.46,1.37v.09a2.19,2.19,0,0,1-.21,1,1.54,1.54,0,0,1-.58.66,1.6,1.6,0,0,1-.86.23,1.52,1.52,0,0,1-1.19-.52,2,2,0,0,1-.46-1.37Zm.41.11a1.68,1.68,0,0,0,.34,1.09,1.16,1.16,0,0,0,1.8,0,1.74,1.74,0,0,0,.34-1.12v-.08a1.88,1.88,0,0,0-.16-.78,1.26,1.26,0,0,0-.44-.54,1.13,1.13,0,0,0-.65-.19,1.09,1.09,0,0,0-.89.43,1.74,1.74,0,0,0-.35,1.12Z"/><path d="M231.19,114.65a2.23,2.23,0,0,1,.38-1.37,1.24,1.24,0,0,1,1-.51,1.29,1.29,0,0,1,1.14.59v-2.07h.41v5.25h-.38l0-.49a1.32,1.32,0,0,1-1.16.56,1.23,1.23,0,0,1-1-.51,2.24,2.24,0,0,1-.39-1.39Zm.41.07a1.93,1.93,0,0,0,.28,1.12.92.92,0,0,0,.8.41,1.1,1.1,0,0,0,1.07-.67v-1.74a1.09,1.09,0,0,0-1.07-.72.93.93,0,0,0-.8.41A2.06,2.06,0,0,0,231.6,114.72Z"/><path d="M235,114.63a2.17,2.17,0,0,1,.21-1,1.55,1.55,0,0,1,1.44-.9,1.52,1.52,0,0,1,1.2.52,2,2,0,0,1,.46,1.37v.09a2.19,2.19,0,0,1-.21,1,1.54,1.54,0,0,1-.58.66,1.6,1.6,0,0,1-.86.23,1.52,1.52,0,0,1-1.19-.52,2,2,0,0,1-.46-1.37Zm.41.11a1.68,1.68,0,0,0,.34,1.09,1.16,1.16,0,0,0,1.8,0,1.74,1.74,0,0,0,.34-1.12v-.08a1.88,1.88,0,0,0-.16-.78,1.26,1.26,0,0,0-.44-.54,1.13,1.13,0,0,0-.65-.19,1.09,1.09,0,0,0-.89.43,1.74,1.74,0,0,0-.35,1.12Z"/><path d="M240.87,113.18l-.28,0a1,1,0,0,0-.65.21,1.18,1.18,0,0,0-.38.62v2.54h-.41v-3.7h.4v.59a1.09,1.09,0,0,1,1-.66.67.67,0,0,1,.27,0Z"/><path d="M241.49,111.76a.27.27,0,0,1,.08-.19.27.27,0,0,1,.21-.08.27.27,0,0,1,.21.08.27.27,0,0,1,.08.19.26.26,0,0,1-.08.19.28.28,0,0,1-.21.08.26.26,0,0,1-.28-.27Zm.48,4.77h-.41v-3.7H242Z"/><path d="M243.35,116.19h2.4v.35h-2.91v-.3l2.24-3h-2.17v-.36h2.69v.31Z"/><path d="M247.87,116.6a1.61,1.61,0,0,1-.85-.23,1.59,1.59,0,0,1-.59-.65,2,2,0,0,1-.21-.93v-.15a2.18,2.18,0,0,1,.21-1A1.65,1.65,0,0,1,247,113a1.42,1.42,0,0,1,.8-.24,1.33,1.33,0,0,1,1.07.46,1.86,1.86,0,0,1,.4,1.26v.23h-2.64v.08a1.55,1.55,0,0,0,.36,1,1.15,1.15,0,0,0,.91.42,1.33,1.33,0,0,0,.58-.12,1.28,1.28,0,0,0,.46-.38l.26.19A1.49,1.49,0,0,1,247.87,116.6Zm-.08-3.49a1,1,0,0,0-.78.34,1.56,1.56,0,0,0-.38.91h2.22v0a1.35,1.35,0,0,0-.3-.87A.94.94,0,0,0,247.79,113.11Z"/><path d="M251.76,113.18l-.28,0a1,1,0,0,0-.65.21,1.18,1.18,0,0,0-.38.62v2.54H250v-3.7h.4v.59a1.09,1.09,0,0,1,1-.66.67.67,0,0,1,.27,0Z"/><path d="M273.48,115a1.79,1.79,0,0,1-.56,1.2,1.86,1.86,0,0,1-1.27.42,1.76,1.76,0,0,1-1-.28,1.8,1.8,0,0,1-.66-.78,2.8,2.8,0,0,1-.24-1.16v-.65a2.82,2.82,0,0,1,.23-1.18,1.78,1.78,0,0,1,.67-.79,1.82,1.82,0,0,1,1-.28,1.78,1.78,0,0,1,1.26.43,1.8,1.8,0,0,1,.54,1.19h-.42a1.27,1.27,0,0,0-1.38-1.27,1.31,1.31,0,0,0-1.08.51,2.2,2.2,0,0,0-.4,1.4v.61a2.21,2.21,0,0,0,.39,1.38,1.26,1.26,0,0,0,1.06.51,1.4,1.4,0,0,0,1-.32,1.51,1.51,0,0,0,.41-.95Z"/><path d="M274.81,113.46a1.44,1.44,0,0,1,.52-.51,1.35,1.35,0,0,1,.69-.18,1.11,1.11,0,0,1,.88.33,1.5,1.5,0,0,1,.29,1v2.43h-.41V114.1a1.13,1.13,0,0,0-.21-.74.82.82,0,0,0-.66-.24,1,1,0,0,0-.67.24,1.39,1.39,0,0,0-.43.64v2.53h-.41v-5.25h.41Z"/><path d="M278.22,111.76a.27.27,0,0,1,.08-.19.27.27,0,0,1,.21-.08.27.27,0,0,1,.21.08.27.27,0,0,1,.08.19.26.26,0,0,1-.08.19.27.27,0,0,1-.21.08.27.27,0,0,1-.21-.08A.27.27,0,0,1,278.22,111.76Zm.48,4.77h-.41v-3.7h.41Z"/><path d="M280.27,116.53h-.41v-5.25h.41Z"/><path d="M281.22,114.65a2.23,2.23,0,0,1,.38-1.37,1.24,1.24,0,0,1,1-.51,1.29,1.29,0,0,1,1.14.59v-2.07h.41v5.25h-.38l0-.49a1.32,1.32,0,0,1-1.16.56,1.23,1.23,0,0,1-1-.51,2.24,2.24,0,0,1-.39-1.39Zm.41.07a1.93,1.93,0,0,0,.28,1.12.92.92,0,0,0,.8.41,1.1,1.1,0,0,0,1.07-.67v-1.74a1.09,1.09,0,0,0-1.07-.72.93.93,0,0,0-.8.41A2.06,2.06,0,0,0,281.63,114.72Z"/><path d="M288,115.19l.15.77.19-.74,1.08-3.67h.38l1.07,3.67.18.75.16-.78.9-3.63h.43l-1.28,5h-.4l-1.13-3.89-.13-.49-.12.49-1.16,3.89h-.4l-1.27-5h.43Z"/><path d="M295.47,116.53a1.91,1.91,0,0,1-.08-.52,1.42,1.42,0,0,1-.55.43,1.68,1.68,0,0,1-.71.15,1.24,1.24,0,0,1-.86-.3,1,1,0,0,1-.33-.75,1,1,0,0,1,.45-.85,2.16,2.16,0,0,1,1.25-.31h.74V114a.81.81,0,0,0-.24-.62,1,1,0,0,0-.71-.23,1.11,1.11,0,0,0-.71.22.65.65,0,0,0-.28.53H293a1,1,0,0,1,.41-.76,1.58,1.58,0,0,1,1-.32,1.44,1.44,0,0,1,1,.31,1.11,1.11,0,0,1,.37.86v1.75a2.17,2.17,0,0,0,.11.8v0Zm-1.29-.29a1.37,1.37,0,0,0,.73-.2,1.16,1.16,0,0,0,.47-.53v-.81h-.73a1.83,1.83,0,0,0-1,.22.67.67,0,0,0-.34.6.66.66,0,0,0,.23.52A.87.87,0,0,0,294.19,116.24Z"/><path d="M299.1,115.59a.58.58,0,0,0-.24-.49,1.89,1.89,0,0,0-.74-.29,3.31,3.31,0,0,1-.76-.24,1,1,0,0,1-.4-.33.83.83,0,0,1-.13-.47.88.88,0,0,1,.37-.72,1.48,1.48,0,0,1,.94-.29,1.52,1.52,0,0,1,1,.31,1,1,0,0,1,.37.8h-.41a.66.66,0,0,0-.27-.54,1.23,1.23,0,0,0-1.33,0,.55.55,0,0,0-.24.47.5.5,0,0,0,.2.43,2.16,2.16,0,0,0,.74.28,3.48,3.48,0,0,1,.81.27,1,1,0,0,1,.4.35.95.95,0,0,1-.25,1.24,1.61,1.61,0,0,1-1,.28,1.66,1.66,0,0,1-1-.31,1,1,0,0,1-.4-.79h.41a.71.71,0,0,0,.3.56,1.24,1.24,0,0,0,.74.2,1.16,1.16,0,0,0,.69-.19A.57.57,0,0,0,299.1,115.59Z"/><path d="M300.84,113.46a1.44,1.44,0,0,1,.52-.51,1.35,1.35,0,0,1,.69-.18,1.11,1.11,0,0,1,.89.33,1.52,1.52,0,0,1,.29,1v2.43h-.41V114.1a1.13,1.13,0,0,0-.21-.74.82.82,0,0,0-.66-.24,1,1,0,0,0-.67.24,1.4,1.4,0,0,0-.43.64v2.53h-.41v-5.25h.41Z"/><path class="cls-3" d="M77.33,141.67,80,132h1.92l-3.5,12.09h-2l-1.54-4.34H73v-2h3.22Z"/><path class="cls-3" d="M77.33,169.67,80,160h1.92l-3.5,12.09h-2l-1.54-4.34H73v-2h3.22Z"/><path class="cls-3" d="M129.33,141.67,132,132h1.92l-3.5,12.09h-2l-1.54-4.34H125v-2h3.22Z"/><path class="cls-3" d="M181.33,141.67,184,132h1.92l-3.5,12.09h-2l-1.54-4.34H177v-2h3.22Z"/><path class="cls-3" d="M77.33,197.67,80,188h1.92l-3.5,12.09h-2l-1.54-4.34H73v-2h3.22Z"/><path class="cls-3" d="M233.33,141.67,236,132h1.92l-3.5,12.09h-2l-1.54-4.34H229v-2h3.22Z"/><path class="cls-3" d="M129.33,169.67,132,160h1.92l-3.5,12.09h-2l-1.54-4.34H125v-2h3.22Z"/><path class="cls-3" d="M233.33,169.67,236,160h1.92l-3.5,12.09h-2l-1.54-4.34H229v-2h3.22Z"/><path class="cls-3" d="M233.33,197.67,236,188h1.92l-3.5,12.09h-2l-1.54-4.34H229v-2h3.22Z"/><path class="cls-3" d="M181.33,281.67,184,272h1.92l-3.5,12.09h-2l-1.54-4.34H177v-2h3.22Z"/><path class="cls-3" d="M285.33,281.67,288,272h1.92l-3.5,12.09h-2l-1.54-4.34H281v-2h3.22Z"/><path class="cls-3" d="M77.33,225.67,80,216h1.92l-3.5,12.09h-2l-1.54-4.34H73v-2h3.22Z"/><path d="M79.11,252.13H76.85l-.51,1.4h-.44l1.88-5h.4l1.88,5h-.44ZM77,251.78h2l-1-2.71Z"/><path d="M83.73,248.91H82v4.62H81.6v-4.62H79.9v-.36h3.83Z"/><path d="M87.29,252.31a.8.8,0,0,0-.29-.65,3.06,3.06,0,0,0-1.06-.46,3.73,3.73,0,0,1-1.13-.47,1.15,1.15,0,0,1,0-1.88,1.93,1.93,0,0,1,1.2-.36,2,2,0,0,1,.89.19,1.45,1.45,0,0,1,.61.53,1.4,1.4,0,0,1,.22.76h-.42a1,1,0,0,0-.35-.82,1.36,1.36,0,0,0-.94-.31,1.48,1.48,0,0,0-.91.25.8.8,0,0,0-.34.67.75.75,0,0,0,.3.62,2.82,2.82,0,0,0,1,.42,4.58,4.58,0,0,1,1,.38,1.45,1.45,0,0,1,.52.47,1.18,1.18,0,0,1,.17.65,1.13,1.13,0,0,1-.47.94,2,2,0,0,1-1.24.36,2.43,2.43,0,0,1-1-.19,1.48,1.48,0,0,1-.67-.53,1.36,1.36,0,0,1-.23-.78h.42a1,1,0,0,0,.39.83,1.67,1.67,0,0,0,1,.3,1.55,1.55,0,0,0,.93-.26A.8.8,0,0,0,87.29,252.31Z"/><path d="M92.72,251.23a1.54,1.54,0,0,1-.54.5,1.45,1.45,0,0,1-.7.18,1.31,1.31,0,0,1-.75-.22,1.44,1.44,0,0,1-.5-.6,2,2,0,0,1-.18-.84,2.07,2.07,0,0,1,.19-.9,1.49,1.49,0,0,1,.53-.63,1.53,1.53,0,0,1,2,.3,2.34,2.34,0,0,1,.42,1.49v.37a3.06,3.06,0,0,1-.57,2,2.17,2.17,0,0,1-1.75.68h-.08v-.36h.14a1.82,1.82,0,0,0,1.36-.51A2.16,2.16,0,0,0,92.72,251.23Zm-1.2.32a1.2,1.2,0,0,0,.74-.24,1.32,1.32,0,0,0,.46-.63v-.23a1.91,1.91,0,0,0-.32-1.17,1,1,0,0,0-.85-.42,1,1,0,0,0-.8.39,1.53,1.53,0,0,0-.31,1,1.49,1.49,0,0,0,.3.95A.94.94,0,0,0,91.52,251.55Z"/><path d="M97,251.46a2.76,2.76,0,0,1-.39,1.6,1.46,1.46,0,0,1-2.27,0,2.65,2.65,0,0,1-.4-1.56v-.89a2.7,2.7,0,0,1,.39-1.59,1.47,1.47,0,0,1,2.27,0,2.6,2.6,0,0,1,.4,1.54Zm-.41-.89a2.43,2.43,0,0,0-.28-1.29,1,1,0,0,0-1.68,0,2.35,2.35,0,0,0-.29,1.26v1a2.43,2.43,0,0,0,.29,1.3.94.94,0,0,0,.84.45.92.92,0,0,0,.83-.44,2.43,2.43,0,0,0,.29-1.29Z"/><path d="M100.48,251.23a1.54,1.54,0,0,1-.54.5,1.45,1.45,0,0,1-.7.18,1.31,1.31,0,0,1-.75-.22,1.44,1.44,0,0,1-.5-.6,2,2,0,0,1-.18-.84,2.07,2.07,0,0,1,.19-.9,1.49,1.49,0,0,1,.53-.63,1.53,1.53,0,0,1,2,.3,2.34,2.34,0,0,1,.42,1.49v.37a3.06,3.06,0,0,1-.57,2,2.17,2.17,0,0,1-1.75.68h-.08v-.36h.14a1.82,1.82,0,0,0,1.36-.51A2.16,2.16,0,0,0,100.48,251.23Zm-1.2.32a1.2,1.2,0,0,0,.74-.24,1.32,1.32,0,0,0,.46-.63v-.23a1.91,1.91,0,0,0-.32-1.17,1,1,0,0,0-.85-.42,1,1,0,0,0-.8.39,1.53,1.53,0,0,0-.31,1,1.49,1.49,0,0,0,.3.95A.94.94,0,0,0,99.28,251.55Z"/><path d="M101.81,254h-.37l2.08-5.4h.37Z"/><path d="M107.13,251.23a1.54,1.54,0,0,1-.54.5,1.45,1.45,0,0,1-.7.18,1.31,1.31,0,0,1-.75-.22,1.44,1.44,0,0,1-.5-.6,2,2,0,0,1-.18-.84,2.07,2.07,0,0,1,.19-.9,1.49,1.49,0,0,1,.53-.63,1.53,1.53,0,0,1,2,.3,2.34,2.34,0,0,1,.42,1.49v.37a3.06,3.06,0,0,1-.57,2,2.17,2.17,0,0,1-1.75.68h-.08v-.36h.14a1.82,1.82,0,0,0,1.36-.51A2.16,2.16,0,0,0,107.13,251.23Zm-1.2.32a1.2,1.2,0,0,0,.74-.24,1.32,1.32,0,0,0,.46-.63v-.23a1.91,1.91,0,0,0-.32-1.17,1,1,0,0,0-.85-.42,1,1,0,0,0-.8.39,1.53,1.53,0,0,0-.31,1,1.49,1.49,0,0,0,.3.95A.94.94,0,0,0,105.94,251.55Z"/><path d="M111.46,251.46a2.76,2.76,0,0,1-.39,1.6,1.46,1.46,0,0,1-2.27,0,2.65,2.65,0,0,1-.4-1.56v-.89a2.7,2.7,0,0,1,.39-1.59,1.47,1.47,0,0,1,2.27,0,2.6,2.6,0,0,1,.4,1.54Zm-.41-.89a2.43,2.43,0,0,0-.28-1.29,1,1,0,0,0-1.68,0,2.35,2.35,0,0,0-.29,1.26v1a2.43,2.43,0,0,0,.29,1.3.94.94,0,0,0,.84.45.92.92,0,0,0,.83-.44,2.43,2.43,0,0,0,.29-1.29Z"/><path d="M115.27,249.84a1.14,1.14,0,0,1-.23.69,1.31,1.31,0,0,1-.59.45,1.46,1.46,0,0,1,.69.48,1.19,1.19,0,0,1,.26.76,1.27,1.27,0,0,1-.43,1,2,2,0,0,1-2.3,0,1.27,1.27,0,0,1-.43-1,1.22,1.22,0,0,1,.25-.76,1.39,1.39,0,0,1,.68-.48,1.27,1.27,0,0,1-.59-.45,1.16,1.16,0,0,1-.22-.69,1.27,1.27,0,0,1,.4-1,1.7,1.7,0,0,1,2.11,0A1.27,1.27,0,0,1,115.27,249.84Zm-.28,2.38a1,1,0,0,0-.33-.76,1.36,1.36,0,0,0-1.69,0,1,1,0,0,0-.33.77,1,1,0,0,0,.32.76,1.44,1.44,0,0,0,1.71,0A1,1,0,0,0,115,252.22Zm-.13-2.38a1,1,0,0,0-.3-.71,1.15,1.15,0,0,0-1.51,0,1,1,0,0,0-.29.72.91.91,0,0,0,.29.7,1.2,1.2,0,0,0,1.51,0A.91.91,0,0,0,114.86,249.83Z"/><path d="M117.82,251.65a2.23,2.23,0,0,1,.38-1.37,1.24,1.24,0,0,1,1-.51,1.29,1.29,0,0,1,1.14.59v-2.07h.41v5.25h-.38l0-.49a1.32,1.32,0,0,1-1.16.56,1.23,1.23,0,0,1-1-.51,2.24,2.24,0,0,1-.39-1.39Zm.41.07a1.93,1.93,0,0,0,.28,1.12.92.92,0,0,0,.8.41,1.1,1.1,0,0,0,1.07-.67v-1.74a1.09,1.09,0,0,0-1.07-.72.93.93,0,0,0-.8.41A2.06,2.06,0,0,0,118.24,251.72Z"/><path d="M123.31,253.6a1.61,1.61,0,0,1-.85-.23,1.58,1.58,0,0,1-.59-.65,2,2,0,0,1-.21-.93v-.15a2.17,2.17,0,0,1,.21-1,1.65,1.65,0,0,1,.58-.67,1.42,1.42,0,0,1,.8-.24,1.33,1.33,0,0,1,1.07.46,1.86,1.86,0,0,1,.4,1.26v.23h-2.64v.08a1.55,1.55,0,0,0,.36,1,1.15,1.15,0,0,0,.91.42,1.33,1.33,0,0,0,.58-.12,1.28,1.28,0,0,0,.46-.38l.26.19A1.49,1.49,0,0,1,123.31,253.6Zm-.08-3.49a1,1,0,0,0-.78.34,1.56,1.56,0,0,0-.38.91h2.22v0a1.36,1.36,0,0,0-.3-.87A.94.94,0,0,0,123.23,250.11Z"/><path d="M127.71,252.59a.58.58,0,0,0-.24-.49,1.89,1.89,0,0,0-.74-.29,3.31,3.31,0,0,1-.76-.24,1,1,0,0,1-.4-.33.83.83,0,0,1-.13-.47.88.88,0,0,1,.37-.72,1.48,1.48,0,0,1,.94-.29,1.52,1.52,0,0,1,1,.31,1,1,0,0,1,.37.8h-.41a.66.66,0,0,0-.27-.54,1.23,1.23,0,0,0-1.33,0,.55.55,0,0,0-.24.47.5.5,0,0,0,.2.43,2.16,2.16,0,0,0,.74.28,3.48,3.48,0,0,1,.81.27,1,1,0,0,1,.4.35.95.95,0,0,1-.25,1.24,1.61,1.61,0,0,1-1,.28,1.66,1.66,0,0,1-1-.31,1,1,0,0,1-.4-.79h.41a.71.71,0,0,0,.3.56,1.24,1.24,0,0,0,.74.2,1.16,1.16,0,0,0,.69-.19A.56.56,0,0,0,127.71,252.59Z"/><path d="M129,248.76a.27.27,0,0,1,.08-.19.27.27,0,0,1,.21-.08.27.27,0,0,1,.21.08.27.27,0,0,1,.08.19.26.26,0,0,1-.08.19.28.28,0,0,1-.21.08.27.27,0,0,1-.21-.08A.27.27,0,0,1,129,248.76Zm.48,4.77h-.41v-3.7h.41Z"/><path d="M130.44,251.65a2.22,2.22,0,0,1,.38-1.38,1.24,1.24,0,0,1,1-.51,1.29,1.29,0,0,1,1.15.6l0-.53h.38v3.62a1.57,1.57,0,0,1-.4,1.13,1.43,1.43,0,0,1-1.08.42,1.65,1.65,0,0,1-.74-.17,1.43,1.43,0,0,1-.55-.46l.23-.25a1.3,1.3,0,0,0,1,.53,1,1,0,0,0,.8-.3,1.2,1.2,0,0,0,.3-.84v-.46a1.32,1.32,0,0,1-1.15.55,1.23,1.23,0,0,1-1-.51,2.23,2.23,0,0,1-.39-1.38Zm.41.07a1.93,1.93,0,0,0,.28,1.12.92.92,0,0,0,.8.41,1.09,1.09,0,0,0,1.07-.68v-1.72a1.16,1.16,0,0,0-.41-.54,1.11,1.11,0,0,0-.65-.19.93.93,0,0,0-.8.41A2.06,2.06,0,0,0,130.86,251.72Z"/><path d="M134.88,249.83v.63a1.46,1.46,0,0,1,.52-.52,1.35,1.35,0,0,1,.69-.18,1.11,1.11,0,0,1,.89.33,1.51,1.51,0,0,1,.29,1v2.43h-.41V251.1a1.13,1.13,0,0,0-.21-.74.82.82,0,0,0-.66-.24,1,1,0,0,0-.67.24,1.4,1.4,0,0,0-.43.64v2.53h-.41v-3.7Z"/><path d="M140.92,252.68l.06.32.08-.33.89-2.83h.35l.88,2.81.1.39.08-.36.76-2.84h.42l-1.08,3.7h-.35l-1-2.93,0-.2,0,.21-.93,2.93h-.35l-1.07-3.7h.42Z"/><path d="M145.29,248.76a.27.27,0,0,1,.08-.19.27.27,0,0,1,.21-.08.27.27,0,0,1,.21.08.27.27,0,0,1,.08.19.26.26,0,0,1-.08.19.28.28,0,0,1-.21.08.27.27,0,0,1-.21-.08A.27.27,0,0,1,145.29,248.76Zm.48,4.77h-.41v-3.7h.41Z"/><path d="M147.52,248.89v.95h.77v.33h-.77v2.47a.77.77,0,0,0,.11.46.43.43,0,0,0,.37.15l.33,0,0,.33a1.33,1.33,0,0,1-.44.06.73.73,0,0,1-.61-.24,1.15,1.15,0,0,1-.19-.72v-2.47h-.68v-.33h.68v-.95Z"/><path d="M149.54,250.46a1.44,1.44,0,0,1,.52-.51,1.35,1.35,0,0,1,.69-.18,1.11,1.11,0,0,1,.89.33,1.51,1.51,0,0,1,.29,1v2.43h-.41V251.1a1.13,1.13,0,0,0-.21-.74.82.82,0,0,0-.66-.24,1,1,0,0,0-.67.24,1.4,1.4,0,0,0-.43.64v2.53h-.41v-5.25h.41Z"/><path d="M158,248.91h-1.71v4.62h-.42v-4.62h-1.7v-.36H158Z"/><path d="M160.77,253.06a1.33,1.33,0,0,1-1.18.54,1.14,1.14,0,0,1-.9-.34,1.5,1.5,0,0,1-.31-1v-2.41h.41v2.35q0,1.06.85,1.06a1,1,0,0,0,1.12-.73v-2.68h.41v3.7h-.4Z"/><path d="M163.95,250.18l-.28,0a1,1,0,0,0-.65.21,1.17,1.17,0,0,0-.38.62v2.54h-.41v-3.7h.4v.59a1.09,1.09,0,0,1,1-.66.67.67,0,0,1,.27,0Z"/><path d="M167.57,251.72a2.22,2.22,0,0,1-.38,1.37,1.22,1.22,0,0,1-1,.51A1.33,1.33,0,0,1,165,253l0,.51h-.38v-5.25H165v2.09a1.29,1.29,0,0,1,1.16-.6,1.23,1.23,0,0,1,1,.5,2.25,2.25,0,0,1,.38,1.39Zm-.41-.07a1.93,1.93,0,0,0-.28-1.13.92.92,0,0,0-.8-.4,1.12,1.12,0,0,0-.67.19,1.17,1.17,0,0,0-.41.57v1.67a1.1,1.1,0,0,0,1.09.7.92.92,0,0,0,.79-.4A2.06,2.06,0,0,0,167.16,251.65Z"/><path d="M168.25,251.63a2.17,2.17,0,0,1,.21-1,1.55,1.55,0,0,1,1.44-.9,1.52,1.52,0,0,1,1.2.52,2,2,0,0,1,.46,1.37v.09a2.19,2.19,0,0,1-.21,1,1.54,1.54,0,0,1-.58.66,1.6,1.6,0,0,1-.86.23,1.52,1.52,0,0,1-1.19-.52,2,2,0,0,1-.46-1.37Zm.41.11a1.68,1.68,0,0,0,.34,1.09,1.16,1.16,0,0,0,1.8,0,1.74,1.74,0,0,0,.34-1.12v-.08a1.88,1.88,0,0,0-.16-.78,1.26,1.26,0,0,0-.44-.54,1.13,1.13,0,0,0-.65-.19,1.09,1.09,0,0,0-.89.43,1.74,1.74,0,0,0-.35,1.12Z"/><path d="M175.11,252.19l.15.77.19-.74,1.08-3.67h.38l1.07,3.67.18.75.16-.78.9-3.63h.43l-1.27,5H178l-1.13-3.89-.13-.49-.12.49-1.16,3.89H175l-1.27-5h.43Z"/><path d="M182.59,253.53a1.93,1.93,0,0,1-.08-.52,1.42,1.42,0,0,1-.55.43,1.67,1.67,0,0,1-.71.15,1.24,1.24,0,0,1-.86-.3,1,1,0,0,1-.33-.75,1,1,0,0,1,.45-.85,2.16,2.16,0,0,1,1.25-.31h.74V251a.81.81,0,0,0-.24-.62,1,1,0,0,0-.71-.23,1.11,1.11,0,0,0-.71.22.65.65,0,0,0-.28.53h-.41a1,1,0,0,1,.41-.76,1.58,1.58,0,0,1,1-.32,1.44,1.44,0,0,1,1,.31,1.11,1.11,0,0,1,.37.86v1.75a2.17,2.17,0,0,0,.11.8v0Zm-1.29-.29a1.37,1.37,0,0,0,.73-.2,1.17,1.17,0,0,0,.47-.53v-.81h-.73a1.83,1.83,0,0,0-1,.22.67.67,0,0,0-.35.6.66.66,0,0,0,.23.52A.87.87,0,0,0,181.31,253.24Z"/><path d="M186.22,252.59a.58.58,0,0,0-.24-.49,1.89,1.89,0,0,0-.74-.29,3.31,3.31,0,0,1-.76-.24,1,1,0,0,1-.4-.33.83.83,0,0,1-.13-.47.88.88,0,0,1,.37-.72,1.48,1.48,0,0,1,.94-.29,1.52,1.52,0,0,1,1,.31,1,1,0,0,1,.37.8h-.41a.66.66,0,0,0-.27-.54,1.23,1.23,0,0,0-1.33,0,.55.55,0,0,0-.24.47.5.5,0,0,0,.2.43,2.16,2.16,0,0,0,.74.28,3.48,3.48,0,0,1,.81.27,1,1,0,0,1,.4.35.95.95,0,0,1-.25,1.24,1.61,1.61,0,0,1-1,.28,1.66,1.66,0,0,1-1-.31,1,1,0,0,1-.4-.79h.41a.71.71,0,0,0,.3.56,1.24,1.24,0,0,0,.74.2,1.16,1.16,0,0,0,.69-.19A.56.56,0,0,0,186.22,252.59Z"/><path d="M188,250.46a1.44,1.44,0,0,1,.52-.51,1.35,1.35,0,0,1,.69-.18,1.11,1.11,0,0,1,.89.33,1.51,1.51,0,0,1,.29,1v2.43h-.41V251.1a1.13,1.13,0,0,0-.21-.74.82.82,0,0,0-.66-.24,1,1,0,0,0-.67.24,1.4,1.4,0,0,0-.43.64v2.53h-.41v-5.25H188Z"/><path d="M193,251.81a4.7,4.7,0,0,1,.16-1.24,4,4,0,0,1,.48-1.1,2.15,2.15,0,0,1,.68-.72l.08.24a1.73,1.73,0,0,0-.38.4,3,3,0,0,0-.34.63,4.52,4.52,0,0,0-.24.82,5.17,5.17,0,0,0-.09,1,4.91,4.91,0,0,0,.14,1.18,4,4,0,0,0,.38,1,2,2,0,0,0,.54.65l-.08.23a2.17,2.17,0,0,1-.69-.72,3.89,3.89,0,0,1-.48-1.09A5,5,0,0,1,193,251.81Z"/><path d="M195.33,253.53H195V249h.35Z"/><path d="M196.08,251.9a1.87,1.87,0,0,1,.18-.82,1.33,1.33,0,0,1,1.23-.77,1.3,1.3,0,0,1,1,.44,1.71,1.71,0,0,1,.39,1.18V252a1.88,1.88,0,0,1-.18.83,1.32,1.32,0,0,1-.5.57,1.37,1.37,0,0,1-.74.2,1.31,1.31,0,0,1-1-.44,1.71,1.71,0,0,1-.39-1.18Zm.35.1a1.44,1.44,0,0,0,.29.93,1,1,0,0,0,1.54,0,1.49,1.49,0,0,0,.29-1v-.07a1.61,1.61,0,0,0-.13-.67,1.08,1.08,0,0,0-.38-.47,1,1,0,0,0-.56-.17.94.94,0,0,0-.76.37,1.49,1.49,0,0,0-.3,1Z"/><path d="M200.4,252.8l.05.27.07-.29.76-2.43h.3l.75,2.41.08.33.07-.31.65-2.43h.36l-.92,3.17h-.3l-.81-2.51,0-.17,0,.18-.8,2.51h-.3l-.92-3.17h.36Z"/><path d="M205.25,251.8h-1.4v-.3h1.4Z"/><path d="M208.43,252a1.91,1.91,0,0,1-.33,1.18,1,1,0,0,1-.88.44,1.17,1.17,0,0,1-1-.46v1.62h-.35v-4.39h.33l0,.45a1.12,1.12,0,0,1,1-.51,1.05,1.05,0,0,1,.89.43,2,2,0,0,1,.32,1.2Zm-.35-.06a1.63,1.63,0,0,0-.25-1,.8.8,0,0,0-.69-.35.93.93,0,0,0-.91.61v1.52a.93.93,0,0,0,.36.42,1,1,0,0,0,.55.14.8.8,0,0,0,.69-.35A1.78,1.78,0,0,0,208.08,251.92Z"/><path d="M209,251.9a1.87,1.87,0,0,1,.18-.82,1.33,1.33,0,0,1,1.23-.77,1.3,1.3,0,0,1,1,.44,1.71,1.71,0,0,1,.39,1.18V252a1.88,1.88,0,0,1-.18.83,1.32,1.32,0,0,1-.5.57,1.37,1.37,0,0,1-.74.2,1.31,1.31,0,0,1-1-.44A1.71,1.71,0,0,1,209,252Zm.35.1a1.44,1.44,0,0,0,.29.93,1,1,0,0,0,1.54,0,1.49,1.49,0,0,0,.29-1v-.07a1.61,1.61,0,0,0-.13-.67,1.08,1.08,0,0,0-.38-.47,1,1,0,0,0-.56-.17.94.94,0,0,0-.76.37,1.49,1.49,0,0,0-.3,1Z"/><path d="M213.32,252.8l.05.27.07-.29.76-2.43h.3l.75,2.41.08.33.07-.31.65-2.43h.36l-.92,3.17h-.3l-.81-2.51,0-.17,0,.18-.8,2.51h-.3l-.92-3.17h.36Z"/><path d="M218.32,253.59a1.38,1.38,0,0,1-.73-.2,1.36,1.36,0,0,1-.51-.56,1.73,1.73,0,0,1-.18-.8v-.13a1.87,1.87,0,0,1,.18-.82,1.41,1.41,0,0,1,.49-.58,1.22,1.22,0,0,1,.69-.21,1.14,1.14,0,0,1,.92.39,1.6,1.6,0,0,1,.34,1.08v.2h-2.26V252a1.33,1.33,0,0,0,.31.9,1,1,0,0,0,.78.36,1.14,1.14,0,0,0,.5-.1,1.1,1.1,0,0,0,.39-.33l.22.17A1.28,1.28,0,0,1,218.32,253.59Zm-.06-3a.88.88,0,0,0-.67.29,1.34,1.34,0,0,0-.33.78h1.9v0a1.16,1.16,0,0,0-.26-.74A.81.81,0,0,0,218.25,250.6Z"/><path d="M221.65,250.66l-.24,0a.86.86,0,0,0-.56.18,1,1,0,0,0-.32.53v2.18h-.35v-3.17h.34v.5a.93.93,0,0,1,.89-.56.58.58,0,0,1,.23,0Z"/><path d="M224.11,251.79v1.74h-.36v-4.27h1.45a1.53,1.53,0,0,1,1.05.34,1.34,1.34,0,0,1,0,1.86,1.58,1.58,0,0,1-1.07.33Zm0-.3h1.09a1.15,1.15,0,0,0,.8-.25.89.89,0,0,0,.28-.7.93.93,0,0,0-.27-.71,1.1,1.1,0,0,0-.78-.27h-1.12Z"/><path d="M229.4,253.13a1.14,1.14,0,0,1-1,.46,1,1,0,0,1-.77-.29,1.29,1.29,0,0,1-.27-.87v-2.06h.35v2q0,.91.73.91a.9.9,0,0,0,1-.63v-2.29h.35v3.17h-.34Z"/><path d="M232.12,250.66l-.24,0a.86.86,0,0,0-.56.18,1,1,0,0,0-.32.53v2.18h-.35v-3.17H231v.5a.93.93,0,0,1,.89-.56.58.58,0,0,1,.23,0Z"/><path d="M233.85,253.59a1.38,1.38,0,0,1-.73-.2,1.36,1.36,0,0,1-.51-.56,1.73,1.73,0,0,1-.18-.8v-.13a1.87,1.87,0,0,1,.18-.82,1.41,1.41,0,0,1,.49-.58,1.22,1.22,0,0,1,.69-.21,1.14,1.14,0,0,1,.92.39,1.6,1.6,0,0,1,.34,1.08v.2h-2.26V252a1.33,1.33,0,0,0,.31.9,1,1,0,0,0,.78.36,1.14,1.14,0,0,0,.5-.1,1.1,1.1,0,0,0,.39-.33l.22.17A1.28,1.28,0,0,1,233.85,253.59Zm-.06-3a.88.88,0,0,0-.67.29,1.34,1.34,0,0,0-.33.78h1.9v0a1.16,1.16,0,0,0-.26-.74A.81.81,0,0,0,233.78,250.6Z"/><path d="M237.62,252.73a.5.5,0,0,0-.21-.42,1.62,1.62,0,0,0-.63-.25,2.85,2.85,0,0,1-.65-.21.87.87,0,0,1-.35-.28.71.71,0,0,1-.11-.4.75.75,0,0,1,.31-.62,1.27,1.27,0,0,1,.8-.24,1.3,1.3,0,0,1,.85.26.84.84,0,0,1,.32.68h-.35a.57.57,0,0,0-.23-.46,1.05,1.05,0,0,0-1.14,0,.47.47,0,0,0-.21.4.43.43,0,0,0,.17.37,1.84,1.84,0,0,0,.64.24,3,3,0,0,1,.69.23.9.9,0,0,1,.34.3.81.81,0,0,1-.21,1.06,1.38,1.38,0,0,1-.85.24,1.42,1.42,0,0,1-.9-.27.83.83,0,0,1-.34-.68h.35a.61.61,0,0,0,.26.48,1.06,1.06,0,0,0,.63.17,1,1,0,0,0,.59-.16A.48.48,0,0,0,237.62,252.73Z"/><path d="M239.3,249.55v.81H240v.29h-.66v2.11a.66.66,0,0,0,.1.39.37.37,0,0,0,.32.13l.28,0v.28a1.15,1.15,0,0,1-.37,0,.63.63,0,0,1-.52-.21,1,1,0,0,1-.16-.62v-2.12h-.58v-.29h.58v-.81Z"/><path d="M242.15,250.66l-.24,0a.85.85,0,0,0-.55.18,1,1,0,0,0-.32.53v2.18h-.35v-3.17H241v.5a.93.93,0,0,1,.89-.56.58.58,0,0,1,.23,0Z"/><path d="M243.87,253.59a1.37,1.37,0,0,1-.73-.2,1.36,1.36,0,0,1-.51-.56,1.73,1.73,0,0,1-.18-.8v-.13a1.87,1.87,0,0,1,.18-.82,1.41,1.41,0,0,1,.49-.58,1.22,1.22,0,0,1,.69-.21,1.15,1.15,0,0,1,.92.39,1.6,1.6,0,0,1,.34,1.08v.2H242.8V252a1.33,1.33,0,0,0,.31.9,1,1,0,0,0,.78.36,1.14,1.14,0,0,0,.5-.1,1.1,1.1,0,0,0,.39-.33l.22.17A1.28,1.28,0,0,1,243.87,253.59Zm-.06-3a.88.88,0,0,0-.67.29,1.34,1.34,0,0,0-.33.78h1.9v0a1.16,1.16,0,0,0-.26-.74A.81.81,0,0,0,243.81,250.6Z"/><path d="M247.75,253.53a1.66,1.66,0,0,1-.07-.44,1.22,1.22,0,0,1-.47.37,1.44,1.44,0,0,1-.61.13,1.06,1.06,0,0,1-.74-.25.83.83,0,0,1-.28-.64A.85.85,0,0,1,246,252a1.85,1.85,0,0,1,1.07-.27h.64v-.36a.69.69,0,0,0-.21-.53.87.87,0,0,0-.61-.19,1,1,0,0,0-.61.19.56.56,0,0,0-.24.45h-.35a.82.82,0,0,1,.35-.65,1.35,1.35,0,0,1,.86-.28,1.24,1.24,0,0,1,.84.27,1,1,0,0,1,.31.74v1.5a1.86,1.86,0,0,0,.1.69v0Zm-1.1-.25a1.18,1.18,0,0,0,.63-.17,1,1,0,0,0,.4-.45V252H247a1.57,1.57,0,0,0-.82.19.58.58,0,0,0-.3.51.57.57,0,0,0,.2.44A.74.74,0,0,0,246.65,253.28Z"/><path d="M249.28,250.36v.52a1.17,1.17,0,0,1,.44-.43,1.21,1.21,0,0,1,.59-.14.89.89,0,0,1,1,.62,1.19,1.19,0,0,1,.45-.46,1.26,1.26,0,0,1,.63-.16q1,0,1,1.11v2.12H253v-2.09a.94.94,0,0,0-.18-.63.74.74,0,0,0-.59-.21.93.93,0,0,0-.64.24.86.86,0,0,0-.29.58v2.1H251v-2.12a.87.87,0,0,0-.19-.61.76.76,0,0,0-.58-.2.88.88,0,0,0-.57.19,1.11,1.11,0,0,0-.35.56v2.17h-.35v-3.17Z"/><path d="M255.33,251.85a4.78,4.78,0,0,1-.16,1.24,3.92,3.92,0,0,1-.47,1.09,2.19,2.19,0,0,1-.69.72l-.08-.23a2,2,0,0,0,.53-.64,4,4,0,0,0,.38-1,5.21,5.21,0,0,0,.14-1.24,4.82,4.82,0,0,0-.14-1.17,4.09,4.09,0,0,0-.39-1,2,2,0,0,0-.53-.65l.08-.23a2.2,2.2,0,0,1,.68.72,4,4,0,0,1,.48,1.1A4.87,4.87,0,0,1,255.33,251.85Z"/><circle class="cls-4" cx="72.21" cy="49.28" r="15.85"/><path class="cls-5" d="M55.12,50a17,17,0,1,0,17-17A17.05,17.05,0,0,0,55.12,50Zm1.71,0A15.33,15.33,0,1,1,72.16,65.32,15.35,15.35,0,0,1,56.83,50Z"/><path class="cls-6" d="M63.16,46.71v.1a5,5,0,0,0,5.18,4.67h.11c1.26-.26,3.4-.67,3.82-.67s2.42.41,3.57.66H76a5,5,0,0,0,5.19-4.67v0l-.9-5.37-1.13.19L80,46.83a3.82,3.82,0,0,1-4,3.51,35.54,35.54,0,0,0-3.74-.68h0c-.65,0-3.31.54-4,.68a3.81,3.81,0,0,1-4-3.51c0-.13.88-5.26.88-5.26L64,41.39Z"/><circle class="cls-6" cx="72.64" cy="56.35" r="0.67"/><path class="cls-6" d="M73.21,58.31a.57.57,0,1,1-.57-.57A.57.57,0,0,1,73.21,58.31Z"/><circle class="cls-6" cx="72.64" cy="60.09" r="0.47"/><path class="cls-6" d="M73,61.68a.37.37,0,0,1-.37.38.38.38,0,1,1,.37-.38Z"/><circle class="cls-6" cx="73.99" cy="54.82" r="0.67"/><ellipse class="cls-6" cx="75.58" cy="54.08" rx="0.57" ry="0.57"/><path class="cls-6" d="M77.64,54.25a.47.47,0,1,1-.47-.48A.47.47,0,0,1,77.64,54.25Z"/><circle class="cls-6" cx="78.35" cy="54.81" r="0.38"/><circle class="cls-6" cx="71.29" cy="54.82" r="0.67"/><path class="cls-6" d="M69.13,54.08a.57.57,0,1,0,.56-.57A.57.57,0,0,0,69.13,54.08Z"/><path class="cls-6" d="M67.62,54.25a.48.48,0,0,0,.48.47.47.47,0,0,0,.47-.47.46.46,0,0,0-.47-.48A.47.47,0,0,0,67.62,54.25Z"/><circle class="cls-6" cx="66.92" cy="54.81" r="0.38"/><circle class="cls-4" cx="233.82" cy="50.05" r="17"/><circle class="cls-7" cx="234.01" cy="50.43" r="15.84"/><path class="cls-8" d="M216.93,50a17,17,0,1,0,17-17A17.05,17.05,0,0,0,216.93,50Zm1.7,0A15.33,15.33,0,1,1,234,65.32,15.35,15.35,0,0,1,218.63,50Z"/><path class="cls-6" d="M233.88,52.95a4.88,4.88,0,0,1-5.71,0,.27.27,0,0,0-.37,0,.26.26,0,0,0,0,.37,5.47,5.47,0,0,0,6.31,0c3.21-2,5.5-.11,5.6,0a.26.26,0,0,0,.34-.39A5.27,5.27,0,0,0,233.88,52.95Z"/><path class="cls-6" d="M233.88,55.79a4.87,4.87,0,0,1-5.71,0,.27.27,0,0,0-.37,0,.26.26,0,0,0,0,.37,5.46,5.46,0,0,0,6.31,0c3.21-2,5.5-.11,5.6,0a.26.26,0,0,0,.36,0,.26.26,0,0,0,0-.37A5.28,5.28,0,0,0,233.88,55.79Z"/><path class="cls-6" d="M233.88,58.64a4.89,4.89,0,0,1-5.71,0,.27.27,0,0,0-.37,0,.26.26,0,0,0,0,.36,5.46,5.46,0,0,0,6.31,0c3.21-2,5.5-.11,5.6,0a.26.26,0,0,0,.36,0,.26.26,0,0,0,0-.37A5.27,5.27,0,0,0,233.88,58.64Z"/><path class="cls-6" d="M224,46.92l1.11-.11a1.41,1.41,0,0,0,.4.82,1.24,1.24,0,0,0,.82.26,1.28,1.28,0,0,0,.83-.23.71.71,0,0,0,.27-.55.51.51,0,0,0-.12-.34,1,1,0,0,0-.41-.24c-.13,0-.44-.12-.9-.24a3.05,3.05,0,0,1-1.28-.55,1.48,1.48,0,0,1-.27-1.93,1.55,1.55,0,0,1,.69-.57,2.86,2.86,0,0,1,1.1-.2,2.37,2.37,0,0,1,1.59.46,1.67,1.67,0,0,1,.56,1.25l-1.13,0a1,1,0,0,0-.31-.62,1.15,1.15,0,0,0-.72-.19,1.34,1.34,0,0,0-.77.2.41.41,0,0,0-.18.35.43.43,0,0,0,.17.34,3,3,0,0,0,1,.37,5.21,5.21,0,0,1,1.21.41,1.52,1.52,0,0,1,.62.57,1.64,1.64,0,0,1,.22.89,1.68,1.68,0,0,1-.26.91,1.63,1.63,0,0,1-.76.63,3.24,3.24,0,0,1-1.22.2,2.41,2.41,0,0,1-1.64-.5A2.16,2.16,0,0,1,224,46.92Z"/><path class="cls-6" d="M229.55,48.75V43.14h4.16v.95h-3v1.24h2.81v.95h-2.81V47.8h3.13v.95Z"/><path class="cls-6" d="M236.21,46.53l.76-2.08.79,2.08Zm1.37-3.39h-1.19l-2.18,5.61h1.2l.46-1.27h2.26l.49,1.27h1.22Z"/><path class="cls-6" d="M241.11,48.75V44.09h-1.65v-.95h4.43v.95h-1.65v4.66Z"/><circle class="cls-4" cx="179.96" cy="49.28" r="15.84"/><path class="cls-9" d="M163,50a17,17,0,1,0,17-17A17.05,17.05,0,0,0,163,50Zm1.71,0A15.33,15.33,0,1,1,180,65.32,15.35,15.35,0,0,1,164.67,50Z"/><path class="cls-6" d="M173.44,56.27v2.28c10.24,0,18.52-.5,18.52-1.14S183.68,56.28,173.44,56.27Z"/><path class="cls-6" d="M173.25,56.27v2.28c2.1.19,18.9.15,18.9-1.14s-16.8-1.33-18.71-1.33h-.19Zm.36.19c10.3,0,17.71.53,18.18,1-.47.36-8,.89-18.35.89Z"/><path class="cls-10" d="M172.7,56.34l.75,2.15c9.66-3.4,17.3-6.63,17.1-7.23S182.35,52.94,172.7,56.34Z"/><path class="cls-6" d="M172.64,56.16l-.18.06.83,2.33c2-.52,17.87-6.13,17.45-7.35S174.45,55.52,172.64,56.16Zm17.78-4.79c-.32.5-7.2,3.48-17,6.93a.07.07,0,0,0,0-.07,11.31,11.31,0,0,0-.51-1.79C182.66,53,189.82,51.07,190.42,51.37Z"/><path class="cls-11" d="M172,56.64l1.43,1.78c8-6.42,14.12-12,13.72-12.5S180,50.23,172,56.64Z"/><path class="cls-6" d="M171.91,56.49l-.14.12,1.55,1.93c7-5.43,14-11.49,14.07-12.52C186.52,44.81,173.4,55.29,171.91,56.49Zm15.17-10.42c-.13.57-5.64,5.67-13.72,12.18h0a8.55,8.55,0,0,0-1.08-1.57C180.32,50.23,186.42,46,187.08,46.07Z"/><path class="cls-12" d="M171.49,57.15l1.94,1.2c5.39-8.7,9.33-16,8.79-16.34S176.89,48.45,171.49,57.15Z"/><path class="cls-6" d="M171.33,57.06l-.1.16,2.1,1.3c1.27-1.69,10.08-16,9-16.67S171.74,56.4,171.33,57.06Zm10.85-14.86h0c0,.69-3.48,7.28-8.9,16a7.76,7.76,0,0,0-1.53-1.13C177.18,48.36,181.53,42.33,182.18,42.19Z"/><path class="cls-13" d="M171.16,57.81l2.22.49c2.2-10,3.48-18.2,2.87-18.33S173.36,47.82,171.16,57.81Z"/><path class="cls-6" d="M171,57.77l0,.18,2.41.53c.64-2,4.2-18.42,2.95-18.7C175.19,40.39,172.84,49.28,171,57.77Zm5.29-17.63a.84.84,0,0,1,0,.34c0,1.63-1.09,8.58-3.1,17.75a7.51,7.51,0,0,0-1.82-.56C173.6,47.62,175.7,40.49,176.27,40.15Z"/><path class="cls-6" d="M171.85,39.59c-1.29,0-1,16.82-1,18.74v.19l2.47-.05C173.5,56.36,173.13,39.57,171.85,39.59ZM171.2,53c0-7.54.33-12.63.72-13,.37.46,1,7.93,1.24,18.31a7.12,7.12,0,0,0-1.91-.13C171.21,56.32,171.2,54.58,171.2,53Z"/><path class="cls-14" d="M192.15,57.37h.09c-.66-10-9.56-17.88-20.24-17.88C182.64,39.58,191.49,47.39,192.15,57.37Z"/><path class="cls-14" d="M191.57,57.55h.09c-.56-10-9.32-17.91-20-18.05C182.29,39.73,191,47.62,191.57,57.55Z"/><circle class="cls-4" cx="126.07" cy="49.95" r="17"/><circle class="cls-7" cx="126.13" cy="49.37" r="15.84"/><path class="cls-15" d="M109,50a17,17,0,1,0,17-17A17.06,17.06,0,0,0,109,50Zm1.71,0a15.33,15.33,0,1,1,15.34,15.32A15.36,15.36,0,0,1,110.74,50Z"/><path class="cls-6" d="M126.87,55.9a.79.79,0,1,1-.79-.79A.78.78,0,0,1,126.87,55.9Z"/><path class="cls-6" d="M126.75,58.23a.67.67,0,1,1-.67-.68A.68.68,0,0,1,126.75,58.23Z"/><path class="cls-6" d="M126.64,60.33a.56.56,0,1,1-.56-.56A.56.56,0,0,1,126.64,60.33Z"/><ellipse class="cls-6" cx="126.08" cy="62.2" rx="0.44" ry="0.45"/><circle class="cls-6" cx="127.68" cy="54.09" r="0.79"/><circle class="cls-6" cx="129.56" cy="53.21" r="0.68"/><circle class="cls-6" cx="131.44" cy="53.41" r="0.56"/><circle class="cls-6" cx="132.84" cy="54.08" r="0.45"/><circle class="cls-6" cx="124.48" cy="54.09" r="0.79"/><ellipse class="cls-6" cx="122.6" cy="53.21" rx="0.67" ry="0.68"/><circle class="cls-6" cx="120.71" cy="53.41" r="0.56"/><circle class="cls-6" cx="119.31" cy="54.08" r="0.45"/><path class="cls-6" d="M128.62,40.77a2.54,2.54,0,1,1-2.54-2.54A2.54,2.54,0,0,1,128.62,40.77Z"/><polygon class="cls-6" points="120.29 50.19 126.08 43.16 131.87 50.19 120.29 50.19"/><path d="M43.48,80.13H41.22l-.51,1.4h-.44l1.88-5h.4l1.88,5H44Zm-2.13-.36h2l-1-2.71Z"/><path d="M45.53,81.53h-.41V76.28h.41Z"/><path d="M47.1,81.53h-.41V76.28h.41Z"/><path d="M50.28,77.83v.6a1.37,1.37,0,0,1,.51-.5,1.4,1.4,0,0,1,.68-.17,1,1,0,0,1,1.11.72,1.39,1.39,0,0,1,.53-.53,1.46,1.46,0,0,1,.73-.19q1.19,0,1.21,1.3v2.47h-.41V79.09a1.1,1.1,0,0,0-.21-.73.87.87,0,0,0-.69-.24,1.09,1.09,0,0,0-.75.29,1,1,0,0,0-.34.68v2.45h-.41V79.06a1,1,0,0,0-.22-.71.89.89,0,0,0-.68-.23,1,1,0,0,0-.66.22,1.29,1.29,0,0,0-.41.65v2.54h-.41v-3.7Z"/><path d="M55.89,79.63a2.17,2.17,0,0,1,.21-1,1.55,1.55,0,0,1,1.44-.9,1.52,1.52,0,0,1,1.2.52,2,2,0,0,1,.46,1.37v.09a2.19,2.19,0,0,1-.21,1,1.54,1.54,0,0,1-.58.66,1.6,1.6,0,0,1-.86.23,1.52,1.52,0,0,1-1.19-.52,2,2,0,0,1-.46-1.37Zm.41.11a1.68,1.68,0,0,0,.34,1.09,1.16,1.16,0,0,0,1.8,0,1.74,1.74,0,0,0,.34-1.12v-.08a1.88,1.88,0,0,0-.16-.78,1.26,1.26,0,0,0-.44-.54,1.13,1.13,0,0,0-.65-.19,1.09,1.09,0,0,0-.89.43,1.74,1.74,0,0,0-.35,1.12Z"/><path d="M59.87,79.65a2.23,2.23,0,0,1,.38-1.37,1.24,1.24,0,0,1,1-.51,1.29,1.29,0,0,1,1.14.59V76.28h.41v5.25h-.38l0-.49a1.32,1.32,0,0,1-1.16.56,1.23,1.23,0,0,1-1-.51,2.24,2.24,0,0,1-.39-1.39Zm.41.07a1.93,1.93,0,0,0,.28,1.12.92.92,0,0,0,.8.41,1.1,1.1,0,0,0,1.07-.67V78.84a1.09,1.09,0,0,0-1.07-.72.93.93,0,0,0-.8.41A2.06,2.06,0,0,0,60.28,79.72Z"/><path d="M65.35,81.6a1.61,1.61,0,0,1-.85-.23,1.58,1.58,0,0,1-.59-.65,2,2,0,0,1-.21-.93v-.15a2.17,2.17,0,0,1,.21-1,1.65,1.65,0,0,1,.58-.67,1.42,1.42,0,0,1,.8-.24,1.33,1.33,0,0,1,1.07.46,1.86,1.86,0,0,1,.4,1.26v.23H64.1v.08a1.55,1.55,0,0,0,.36,1,1.15,1.15,0,0,0,.91.42,1.33,1.33,0,0,0,.58-.12,1.28,1.28,0,0,0,.46-.38l.26.19A1.49,1.49,0,0,1,65.35,81.6Zm-.08-3.49a1,1,0,0,0-.78.34,1.56,1.56,0,0,0-.38.91h2.22v0a1.36,1.36,0,0,0-.3-.87A.94.94,0,0,0,65.28,78.11Z"/><path d="M68,81.53h-.41V76.28H68Z"/><path d="M71.32,80.59a.58.58,0,0,0-.24-.49,1.89,1.89,0,0,0-.74-.29,3.31,3.31,0,0,1-.76-.24,1,1,0,0,1-.4-.33.83.83,0,0,1-.13-.47.88.88,0,0,1,.37-.72,1.48,1.48,0,0,1,.94-.29,1.52,1.52,0,0,1,1,.31,1,1,0,0,1,.37.8H71.3a.66.66,0,0,0-.27-.54,1.23,1.23,0,0,0-1.33,0,.55.55,0,0,0-.24.47.5.5,0,0,0,.2.43,2.16,2.16,0,0,0,.74.28,3.48,3.48,0,0,1,.81.27,1,1,0,0,1,.4.35.95.95,0,0,1-.25,1.24,1.61,1.61,0,0,1-1,.28,1.66,1.66,0,0,1-1-.31,1,1,0,0,1-.4-.79h.41a.71.71,0,0,0,.3.56,1.24,1.24,0,0,0,.74.2,1.16,1.16,0,0,0,.69-.19A.56.56,0,0,0,71.32,80.59Z"/><path d="M74.33,76.76a.27.27,0,0,1,.08-.19.27.27,0,0,1,.21-.08.27.27,0,0,1,.21.08.27.27,0,0,1,.08.19.26.26,0,0,1-.08.19.28.28,0,0,1-.21.08.27.27,0,0,1-.21-.08A.27.27,0,0,1,74.33,76.76Zm.48,4.77H74.4v-3.7h.41Z"/><path d="M76.31,77.83v.63a1.46,1.46,0,0,1,.52-.52,1.35,1.35,0,0,1,.69-.18,1.11,1.11,0,0,1,.89.33,1.51,1.51,0,0,1,.29,1v2.43h-.41V79.1a1.13,1.13,0,0,0-.21-.74.82.82,0,0,0-.66-.24,1,1,0,0,0-.67.24,1.4,1.4,0,0,0-.43.64v2.53h-.41v-3.7Z"/><path d="M81.14,81.25a1.08,1.08,0,0,0,.72-.24.85.85,0,0,0,.31-.62h.39a1.16,1.16,0,0,1-.21.62,1.33,1.33,0,0,1-.52.44,1.56,1.56,0,0,1-.69.16A1.43,1.43,0,0,1,80,81.09a2,2,0,0,1-.43-1.36v-.12a2.31,2.31,0,0,1,.19-1A1.47,1.47,0,0,1,80.3,78a1.51,1.51,0,0,1,.84-.23,1.43,1.43,0,0,1,1,.36,1.32,1.32,0,0,1,.42,1h-.39a1,1,0,0,0-1-1,1,1,0,0,0-.86.4A1.81,1.81,0,0,0,80,79.63v.12a1.77,1.77,0,0,0,.31,1.1A1,1,0,0,0,81.14,81.25Z"/><path d="M83.83,81.53h-.41V76.28h.41Z"/><path d="M87.32,81.06a1.33,1.33,0,0,1-1.18.54,1.14,1.14,0,0,1-.9-.34,1.5,1.5,0,0,1-.31-1V77.83h.41v2.35q0,1.06.85,1.06a1,1,0,0,0,1.12-.73V77.83h.41v3.7h-.4Z"/><path d="M88.62,79.65A2.23,2.23,0,0,1,89,78.28a1.24,1.24,0,0,1,1-.51,1.29,1.29,0,0,1,1.14.59V76.28h.41v5.25h-.38l0-.49A1.32,1.32,0,0,1,90,81.6a1.23,1.23,0,0,1-1-.51,2.24,2.24,0,0,1-.39-1.39Zm.41.07a1.93,1.93,0,0,0,.28,1.12.92.92,0,0,0,.8.41,1.1,1.1,0,0,0,1.07-.67V78.84a1.09,1.09,0,0,0-1.07-.72.93.93,0,0,0-.8.41A2.06,2.06,0,0,0,89,79.72Z"/><path d="M94.11,81.6a1.61,1.61,0,0,1-.85-.23,1.58,1.58,0,0,1-.59-.65,2,2,0,0,1-.21-.93v-.15a2.17,2.17,0,0,1,.21-1,1.65,1.65,0,0,1,.58-.67,1.42,1.42,0,0,1,.8-.24,1.33,1.33,0,0,1,1.07.46,1.86,1.86,0,0,1,.4,1.26v.23H92.86v.08a1.55,1.55,0,0,0,.36,1,1.15,1.15,0,0,0,.91.42,1.33,1.33,0,0,0,.58-.12,1.28,1.28,0,0,0,.46-.38l.26.19A1.49,1.49,0,0,1,94.11,81.6ZM94,78.11a1,1,0,0,0-.78.34,1.56,1.56,0,0,0-.38.91h2.22v0a1.36,1.36,0,0,0-.3-.87A.94.94,0,0,0,94,78.11Z"/><path d="M99.71,78.18l-.28,0a1,1,0,0,0-.65.21,1.17,1.17,0,0,0-.38.62v2.54H98v-3.7h.4v.59a1.09,1.09,0,0,1,1-.66.67.67,0,0,1,.27,0Z"/><path d="M101.72,81.6a1.61,1.61,0,0,1-.85-.23,1.58,1.58,0,0,1-.59-.65,2,2,0,0,1-.21-.93v-.15a2.17,2.17,0,0,1,.21-1,1.65,1.65,0,0,1,.58-.67,1.42,1.42,0,0,1,.8-.24,1.33,1.33,0,0,1,1.07.46,1.86,1.86,0,0,1,.4,1.26v.23h-2.64v.08a1.55,1.55,0,0,0,.36,1,1.15,1.15,0,0,0,.91.42,1.33,1.33,0,0,0,.58-.12,1.28,1.28,0,0,0,.46-.38l.26.19A1.49,1.49,0,0,1,101.72,81.6Zm-.08-3.49a1,1,0,0,0-.78.34,1.56,1.56,0,0,0-.38.91h2.22v0a1.36,1.36,0,0,0-.3-.87A.94.94,0,0,0,101.64,78.11Z"/><path d="M106.24,81.53a1.93,1.93,0,0,1-.08-.52,1.42,1.42,0,0,1-.55.43,1.67,1.67,0,0,1-.71.15,1.24,1.24,0,0,1-.86-.3,1,1,0,0,1-.33-.75,1,1,0,0,1,.45-.85,2.16,2.16,0,0,1,1.25-.31h.74V79a.81.81,0,0,0-.24-.62,1,1,0,0,0-.71-.23,1.11,1.11,0,0,0-.71.22.65.65,0,0,0-.28.53h-.41a1,1,0,0,1,.41-.76,1.58,1.58,0,0,1,1-.32,1.44,1.44,0,0,1,1,.31,1.11,1.11,0,0,1,.37.86v1.75a2.17,2.17,0,0,0,.11.8v0ZM105,81.24a1.37,1.37,0,0,0,.73-.2,1.17,1.17,0,0,0,.47-.53V79.7h-.73a1.83,1.83,0,0,0-1,.22.67.67,0,0,0-.35.6.66.66,0,0,0,.23.52A.87.87,0,0,0,105,81.24Z"/><path d="M109.36,78.18l-.28,0a1,1,0,0,0-.65.21,1.17,1.17,0,0,0-.38.62v2.54h-.41v-3.7h.4v.59a1.09,1.09,0,0,1,1-.66.67.67,0,0,1,.27,0Z"/><path d="M112.59,80.68l.06.32.08-.33.89-2.83H114l.88,2.81.1.39.08-.36.76-2.84h.42l-1.08,3.7h-.35l-1-2.93,0-.2,0,.21-.93,2.93h-.35l-1.07-3.7h.42Z"/><path d="M119.32,81.53a1.93,1.93,0,0,1-.08-.52,1.42,1.42,0,0,1-.55.43,1.67,1.67,0,0,1-.71.15,1.24,1.24,0,0,1-.86-.3,1,1,0,0,1-.33-.75,1,1,0,0,1,.45-.85,2.16,2.16,0,0,1,1.25-.31h.74V79a.81.81,0,0,0-.24-.62,1,1,0,0,0-.71-.23,1.11,1.11,0,0,0-.71.22.65.65,0,0,0-.28.53h-.41a1,1,0,0,1,.41-.76,1.58,1.58,0,0,1,1-.32,1.44,1.44,0,0,1,1,.31,1.11,1.11,0,0,1,.37.86v1.75a2.17,2.17,0,0,0,.11.8v0ZM118,81.24a1.37,1.37,0,0,0,.73-.2,1.17,1.17,0,0,0,.47-.53V79.7h-.73a1.83,1.83,0,0,0-1,.22.67.67,0,0,0-.35.6.66.66,0,0,0,.23.52A.87.87,0,0,0,118,81.24Z"/><path d="M123,80.59a.58.58,0,0,0-.24-.49,1.89,1.89,0,0,0-.74-.29,3.31,3.31,0,0,1-.76-.24,1,1,0,0,1-.4-.33.83.83,0,0,1-.13-.47A.88.88,0,0,1,121,78a1.48,1.48,0,0,1,.94-.29,1.52,1.52,0,0,1,1,.31,1,1,0,0,1,.37.8h-.41a.66.66,0,0,0-.27-.54,1.23,1.23,0,0,0-1.33,0,.55.55,0,0,0-.24.47.5.5,0,0,0,.2.43,2.16,2.16,0,0,0,.74.28,3.48,3.48,0,0,1,.81.27,1,1,0,0,1,.4.35.95.95,0,0,1-.25,1.24,1.61,1.61,0,0,1-1,.28,1.66,1.66,0,0,1-1-.31,1,1,0,0,1-.4-.79H121a.71.71,0,0,0,.3.56,1.24,1.24,0,0,0,.74.2,1.16,1.16,0,0,0,.69-.19A.56.56,0,0,0,123,80.59Z"/><path d="M124.69,78.46a1.44,1.44,0,0,1,.52-.51,1.35,1.35,0,0,1,.69-.18,1.11,1.11,0,0,1,.89.33,1.51,1.51,0,0,1,.29,1v2.43h-.41V79.1a1.13,1.13,0,0,0-.21-.74.82.82,0,0,0-.66-.24,1,1,0,0,0-.67.24,1.4,1.4,0,0,0-.43.64v2.53h-.41V76.28h.41Z"/><path d="M128,82.46l-.24-.18a1.49,1.49,0,0,0,.32-.86v-.53h.4v.43A1.47,1.47,0,0,1,128,82.46Z"/><path d="M131.46,81.53V78.17h-.61v-.33h.61v-.45a1.22,1.22,0,0,1,.29-.87,1.06,1.06,0,0,1,.8-.3,1.57,1.57,0,0,1,.43.06l0,.34a1.6,1.6,0,0,0-.37,0,.67.67,0,0,0-.53.21.87.87,0,0,0-.19.6v.46h.88v.33h-.88v3.36Z"/><path d="M134.83,81.6a1.61,1.61,0,0,1-.85-.23,1.58,1.58,0,0,1-.59-.65,2,2,0,0,1-.21-.93v-.15a2.17,2.17,0,0,1,.21-1A1.65,1.65,0,0,1,134,78a1.42,1.42,0,0,1,.8-.24,1.33,1.33,0,0,1,1.07.46,1.86,1.86,0,0,1,.4,1.26v.23h-2.64v.08a1.55,1.55,0,0,0,.36,1,1.15,1.15,0,0,0,.91.42,1.33,1.33,0,0,0,.58-.12,1.28,1.28,0,0,0,.46-.38l.26.19A1.49,1.49,0,0,1,134.83,81.6Zm-.08-3.49a1,1,0,0,0-.78.34,1.56,1.56,0,0,0-.38.91h2.22v0a1.36,1.36,0,0,0-.3-.87A.94.94,0,0,0,134.76,78.11Z"/><path d="M137.39,77.83v.6a1.37,1.37,0,0,1,.51-.5,1.4,1.4,0,0,1,.68-.17,1,1,0,0,1,1.11.72,1.39,1.39,0,0,1,.53-.53,1.46,1.46,0,0,1,.73-.19q1.19,0,1.21,1.3v2.47h-.41V79.09a1.1,1.1,0,0,0-.21-.73.87.87,0,0,0-.69-.24,1.09,1.09,0,0,0-.75.29,1,1,0,0,0-.34.68v2.45h-.41V79.06a1,1,0,0,0-.22-.71.89.89,0,0,0-.68-.23,1,1,0,0,0-.66.22,1.29,1.29,0,0,0-.41.65v2.54H137v-3.7Z"/><path d="M143.2,76.76a.27.27,0,0,1,.08-.19.27.27,0,0,1,.21-.08.27.27,0,0,1,.21.08.27.27,0,0,1,.08.19.26.26,0,0,1-.08.19.28.28,0,0,1-.21.08.27.27,0,0,1-.21-.08A.27.27,0,0,1,143.2,76.76Zm.48,4.77h-.41v-3.7h.41Z"/><path d="M145.18,77.83v.63a1.46,1.46,0,0,1,.52-.52,1.35,1.35,0,0,1,.69-.18,1.11,1.11,0,0,1,.89.33,1.51,1.51,0,0,1,.29,1v2.43h-.41V79.1a1.13,1.13,0,0,0-.21-.74.82.82,0,0,0-.66-.24,1,1,0,0,0-.67.24,1.4,1.4,0,0,0-.43.64v2.53h-.41v-3.7Z"/><path d="M148.61,76.76a.27.27,0,0,1,.08-.19.27.27,0,0,1,.21-.08.27.27,0,0,1,.21.08.27.27,0,0,1,.08.19.26.26,0,0,1-.08.19.28.28,0,0,1-.21.08.27.27,0,0,1-.21-.08A.27.27,0,0,1,148.61,76.76Zm.48,4.77h-.41v-3.7h.41Z"/><path d="M150.59,77.83v.63a1.46,1.46,0,0,1,.52-.52,1.35,1.35,0,0,1,.69-.18,1.11,1.11,0,0,1,.89.33,1.51,1.51,0,0,1,.29,1v2.43h-.41V79.1a1.13,1.13,0,0,0-.21-.74.82.82,0,0,0-.66-.24,1,1,0,0,0-.67.24,1.4,1.4,0,0,0-.43.64v2.53h-.41v-3.7Z"/><path d="M155.48,81.6a1.61,1.61,0,0,1-.85-.23,1.58,1.58,0,0,1-.59-.65,2,2,0,0,1-.21-.93v-.15a2.17,2.17,0,0,1,.21-1,1.65,1.65,0,0,1,.58-.67,1.42,1.42,0,0,1,.8-.24,1.33,1.33,0,0,1,1.07.46,1.86,1.86,0,0,1,.4,1.26v.23h-2.64v.08a1.55,1.55,0,0,0,.36,1,1.15,1.15,0,0,0,.91.42,1.33,1.33,0,0,0,.58-.12,1.28,1.28,0,0,0,.46-.38l.26.19A1.49,1.49,0,0,1,155.48,81.6Zm-.08-3.49a1,1,0,0,0-.78.34,1.56,1.56,0,0,0-.38.91h2.22v0a1.36,1.36,0,0,0-.3-.87A.94.94,0,0,0,155.4,78.11Z"/><path d="M160.25,80.68l.06.32.08-.33.89-2.83h.35l.88,2.81.1.39.08-.36.76-2.84h.42l-1.08,3.7h-.35l-1-2.93,0-.2,0,.21-.93,2.93h-.35L159,77.83h.42Z"/><path d="M167,81.53a1.93,1.93,0,0,1-.08-.52,1.42,1.42,0,0,1-.55.43,1.67,1.67,0,0,1-.71.15,1.24,1.24,0,0,1-.86-.3,1,1,0,0,1-.33-.75,1,1,0,0,1,.45-.85,2.16,2.16,0,0,1,1.25-.31h.74V79a.81.81,0,0,0-.24-.62,1,1,0,0,0-.71-.23,1.11,1.11,0,0,0-.71.22.65.65,0,0,0-.28.53h-.41a1,1,0,0,1,.41-.76,1.58,1.58,0,0,1,1-.32,1.44,1.44,0,0,1,1,.31,1.11,1.11,0,0,1,.37.86v1.75a2.17,2.17,0,0,0,.11.8v0Zm-1.29-.29a1.37,1.37,0,0,0,.73-.2,1.17,1.17,0,0,0,.47-.53V79.7h-.73a1.83,1.83,0,0,0-1,.22.67.67,0,0,0-.35.6.66.66,0,0,0,.23.52A.87.87,0,0,0,165.69,81.24Z"/><path d="M170.61,80.59a.58.58,0,0,0-.24-.49,1.89,1.89,0,0,0-.74-.29,3.31,3.31,0,0,1-.76-.24,1,1,0,0,1-.4-.33.83.83,0,0,1-.13-.47.88.88,0,0,1,.37-.72,1.48,1.48,0,0,1,.94-.29,1.52,1.52,0,0,1,1,.31,1,1,0,0,1,.37.8h-.41a.66.66,0,0,0-.27-.54,1.23,1.23,0,0,0-1.33,0,.55.55,0,0,0-.24.47.5.5,0,0,0,.2.43,2.16,2.16,0,0,0,.74.28,3.48,3.48,0,0,1,.81.27,1,1,0,0,1,.4.35.95.95,0,0,1-.25,1.24,1.61,1.61,0,0,1-1,.28,1.66,1.66,0,0,1-1-.31,1,1,0,0,1-.4-.79h.41a.71.71,0,0,0,.3.56,1.24,1.24,0,0,0,.74.2,1.16,1.16,0,0,0,.69-.19A.56.56,0,0,0,170.61,80.59Z"/><path d="M172.34,78.46a1.44,1.44,0,0,1,.52-.51,1.35,1.35,0,0,1,.69-.18,1.11,1.11,0,0,1,.89.33,1.51,1.51,0,0,1,.29,1v2.43h-.41V79.1a1.13,1.13,0,0,0-.21-.74.82.82,0,0,0-.66-.24,1,1,0,0,0-.67.24,1.4,1.4,0,0,0-.43.64v2.53h-.41V76.28h.41Z"/><path d="M175.69,82.46l-.24-.18a1.49,1.49,0,0,0,.32-.86v-.53h.4v.43A1.47,1.47,0,0,1,175.69,82.46Z"/><path d="M181,80.59a.58.58,0,0,0-.24-.49,1.89,1.89,0,0,0-.74-.29,3.31,3.31,0,0,1-.76-.24,1,1,0,0,1-.4-.33.83.83,0,0,1-.13-.47.88.88,0,0,1,.37-.72,1.48,1.48,0,0,1,.94-.29,1.52,1.52,0,0,1,1,.31,1,1,0,0,1,.37.8H181a.66.66,0,0,0-.27-.54,1.23,1.23,0,0,0-1.33,0,.55.55,0,0,0-.24.47.5.5,0,0,0,.2.43,2.16,2.16,0,0,0,.74.28,3.48,3.48,0,0,1,.81.27,1,1,0,0,1,.4.35.95.95,0,0,1-.25,1.24,1.61,1.61,0,0,1-1,.28,1.66,1.66,0,0,1-1-.31,1,1,0,0,1-.4-.79H179a.71.71,0,0,0,.3.56,1.24,1.24,0,0,0,.74.2,1.16,1.16,0,0,0,.69-.19A.56.56,0,0,0,181,80.59Z"/><path d="M182.14,79.63a2.17,2.17,0,0,1,.21-1,1.55,1.55,0,0,1,1.44-.9,1.52,1.52,0,0,1,1.2.52,2,2,0,0,1,.46,1.37v.09a2.19,2.19,0,0,1-.21,1,1.54,1.54,0,0,1-.58.66,1.6,1.6,0,0,1-.86.23,1.52,1.52,0,0,1-1.19-.52,2,2,0,0,1-.46-1.37Zm.41.11a1.68,1.68,0,0,0,.34,1.09,1.16,1.16,0,0,0,1.8,0,1.74,1.74,0,0,0,.34-1.12v-.08a1.88,1.88,0,0,0-.16-.78,1.26,1.26,0,0,0-.44-.54,1.13,1.13,0,0,0-.65-.19,1.09,1.09,0,0,0-.89.43,1.74,1.74,0,0,0-.35,1.12Z"/><path d="M186.58,81.53V78.17H186v-.33h.61v-.45a1.22,1.22,0,0,1,.29-.87,1.06,1.06,0,0,1,.8-.3,1.57,1.57,0,0,1,.43.06l0,.34a1.6,1.6,0,0,0-.37,0,.67.67,0,0,0-.53.21.87.87,0,0,0-.19.6v.46h.88v.33H187v3.36Z"/><path d="M189.24,76.89v.95H190v.33h-.77v2.47a.77.77,0,0,0,.11.46.43.43,0,0,0,.37.15l.33,0,0,.33a1.33,1.33,0,0,1-.44.06.73.73,0,0,1-.61-.24,1.15,1.15,0,0,1-.19-.72V78.17h-.68v-.33h.68v-.95Z"/><path d="M193.92,81.25a1.08,1.08,0,0,0,.72-.24.85.85,0,0,0,.31-.62h.39a1.16,1.16,0,0,1-.21.62,1.33,1.33,0,0,1-.52.44,1.56,1.56,0,0,1-.69.16,1.43,1.43,0,0,1-1.15-.51,2,2,0,0,1-.43-1.36v-.12a2.31,2.31,0,0,1,.19-1,1.47,1.47,0,0,1,.55-.65,1.51,1.51,0,0,1,.84-.23,1.43,1.43,0,0,1,1,.36,1.32,1.32,0,0,1,.42,1H195a1,1,0,0,0-1-1,1,1,0,0,0-.86.4,1.81,1.81,0,0,0-.31,1.12v.12a1.77,1.77,0,0,0,.31,1.1A1,1,0,0,0,193.92,81.25Z"/><path d="M196.62,81.53h-.41V76.28h.41Z"/><path d="M197.5,79.63a2.17,2.17,0,0,1,.21-1,1.55,1.55,0,0,1,1.44-.9,1.52,1.52,0,0,1,1.2.52,2,2,0,0,1,.46,1.37v.09a2.19,2.19,0,0,1-.21,1,1.54,1.54,0,0,1-.58.66,1.6,1.6,0,0,1-.86.23,1.52,1.52,0,0,1-1.19-.52,2,2,0,0,1-.46-1.37Zm.41.11a1.68,1.68,0,0,0,.34,1.09,1.16,1.16,0,0,0,1.8,0,1.74,1.74,0,0,0,.34-1.12v-.08a1.88,1.88,0,0,0-.16-.78,1.26,1.26,0,0,0-.44-.54,1.13,1.13,0,0,0-.65-.19,1.09,1.09,0,0,0-.89.43,1.74,1.74,0,0,0-.35,1.12Z"/><path d="M203.86,80.59a.58.58,0,0,0-.24-.49,1.89,1.89,0,0,0-.74-.29,3.31,3.31,0,0,1-.76-.24,1,1,0,0,1-.4-.33.83.83,0,0,1-.13-.47A.88.88,0,0,1,202,78a1.48,1.48,0,0,1,.94-.29,1.52,1.52,0,0,1,1,.31,1,1,0,0,1,.37.8h-.41a.66.66,0,0,0-.27-.54,1.23,1.23,0,0,0-1.33,0,.55.55,0,0,0-.24.47.5.5,0,0,0,.2.43,2.16,2.16,0,0,0,.74.28,3.48,3.48,0,0,1,.81.27,1,1,0,0,1,.4.35.95.95,0,0,1-.25,1.24,1.61,1.61,0,0,1-1,.28,1.66,1.66,0,0,1-1-.31,1,1,0,0,1-.4-.79h.41a.71.71,0,0,0,.3.56,1.24,1.24,0,0,0,.74.2,1.16,1.16,0,0,0,.69-.19A.56.56,0,0,0,203.86,80.59Z"/><path d="M205.17,76.76a.27.27,0,0,1,.08-.19.27.27,0,0,1,.21-.08.27.27,0,0,1,.21.08.27.27,0,0,1,.08.19.26.26,0,0,1-.08.19.28.28,0,0,1-.21.08.27.27,0,0,1-.21-.08A.27.27,0,0,1,205.17,76.76Zm.48,4.77h-.41v-3.7h.41Z"/><path d="M207.15,77.83v.63a1.46,1.46,0,0,1,.52-.52,1.35,1.35,0,0,1,.69-.18,1.11,1.11,0,0,1,.89.33,1.51,1.51,0,0,1,.29,1v2.43h-.41V79.1a1.13,1.13,0,0,0-.21-.74.82.82,0,0,0-.66-.24,1,1,0,0,0-.67.24,1.4,1.4,0,0,0-.43.64v2.53h-.41v-3.7Z"/><path d="M210.44,79.65a2.22,2.22,0,0,1,.38-1.38,1.24,1.24,0,0,1,1-.51,1.29,1.29,0,0,1,1.15.6l0-.53h.38v3.62a1.57,1.57,0,0,1-.4,1.13,1.43,1.43,0,0,1-1.08.42,1.65,1.65,0,0,1-.74-.17,1.43,1.43,0,0,1-.55-.46l.23-.25a1.3,1.3,0,0,0,1,.53,1,1,0,0,0,.8-.3,1.2,1.2,0,0,0,.3-.84v-.46a1.32,1.32,0,0,1-1.15.55,1.23,1.23,0,0,1-1-.51,2.23,2.23,0,0,1-.39-1.38Zm.41.07a1.93,1.93,0,0,0,.28,1.12.92.92,0,0,0,.8.41,1.09,1.09,0,0,0,1.07-.68V78.85a1.16,1.16,0,0,0-.41-.54,1.11,1.11,0,0,0-.65-.19.93.93,0,0,0-.8.41A2.06,2.06,0,0,0,210.86,79.72Z"/><path d="M218.41,80.59a.58.58,0,0,0-.24-.49,1.89,1.89,0,0,0-.74-.29,3.31,3.31,0,0,1-.76-.24,1,1,0,0,1-.4-.33.83.83,0,0,1-.13-.47.88.88,0,0,1,.37-.72,1.48,1.48,0,0,1,.94-.29,1.52,1.52,0,0,1,1,.31,1,1,0,0,1,.37.8h-.41a.66.66,0,0,0-.27-.54,1.23,1.23,0,0,0-1.33,0,.55.55,0,0,0-.24.47.5.5,0,0,0,.2.43,2.16,2.16,0,0,0,.74.28,3.48,3.48,0,0,1,.81.27,1,1,0,0,1,.4.35.95.95,0,0,1-.25,1.24,1.61,1.61,0,0,1-1,.28,1.66,1.66,0,0,1-1-.31,1,1,0,0,1-.4-.79h.41a.71.71,0,0,0,.3.56,1.24,1.24,0,0,0,.74.2,1.16,1.16,0,0,0,.69-.19A.56.56,0,0,0,218.41,80.59Z"/><path d="M221.17,81.6a1.61,1.61,0,0,1-.85-.23,1.58,1.58,0,0,1-.59-.65,2,2,0,0,1-.21-.93v-.15a2.17,2.17,0,0,1,.21-1,1.65,1.65,0,0,1,.58-.67,1.42,1.42,0,0,1,.8-.24,1.33,1.33,0,0,1,1.07.46,1.86,1.86,0,0,1,.4,1.26v.23h-2.64v.08a1.55,1.55,0,0,0,.36,1,1.15,1.15,0,0,0,.91.42,1.33,1.33,0,0,0,.58-.12,1.28,1.28,0,0,0,.46-.38l.26.19A1.49,1.49,0,0,1,221.17,81.6Zm-.08-3.49a1,1,0,0,0-.78.34,1.56,1.56,0,0,0-.38.91h2.22v0a1.36,1.36,0,0,0-.3-.87A.94.94,0,0,0,221.09,78.11Z"/><path d="M225.69,81.53a1.93,1.93,0,0,1-.08-.52,1.42,1.42,0,0,1-.55.43,1.67,1.67,0,0,1-.71.15,1.24,1.24,0,0,1-.86-.3,1,1,0,0,1-.33-.75,1,1,0,0,1,.45-.85,2.16,2.16,0,0,1,1.25-.31h.74V79a.81.81,0,0,0-.24-.62,1,1,0,0,0-.71-.23,1.11,1.11,0,0,0-.71.22.65.65,0,0,0-.28.53h-.41a1,1,0,0,1,.41-.76,1.58,1.58,0,0,1,1-.32,1.44,1.44,0,0,1,1,.31,1.11,1.11,0,0,1,.37.86v1.75a2.17,2.17,0,0,0,.11.8v0Zm-1.29-.29a1.37,1.37,0,0,0,.73-.2,1.17,1.17,0,0,0,.47-.53V79.7h-.73a1.83,1.83,0,0,0-1,.22.67.67,0,0,0-.35.6.66.66,0,0,0,.23.52A.87.87,0,0,0,224.4,81.24Z"/><path d="M227.74,76.89v.95h.77v.33h-.77v2.47a.77.77,0,0,0,.11.46.43.43,0,0,0,.37.15l.33,0,0,.33a1.33,1.33,0,0,1-.44.06.73.73,0,0,1-.61-.24,1.15,1.15,0,0,1-.19-.72V78.17h-.68v-.33h.68v-.95Z"/><path d="M231.57,80.59a.58.58,0,0,0-.24-.49,1.89,1.89,0,0,0-.74-.29,3.31,3.31,0,0,1-.76-.24,1,1,0,0,1-.4-.33.83.83,0,0,1-.13-.47.88.88,0,0,1,.37-.72,1.48,1.48,0,0,1,.94-.29,1.52,1.52,0,0,1,1,.31,1,1,0,0,1,.37.8h-.41a.66.66,0,0,0-.27-.54,1.23,1.23,0,0,0-1.33,0,.55.55,0,0,0-.24.47.5.5,0,0,0,.2.43,2.16,2.16,0,0,0,.74.28,3.48,3.48,0,0,1,.81.27,1,1,0,0,1,.4.35.95.95,0,0,1-.25,1.24,1.61,1.61,0,0,1-1,.28,1.66,1.66,0,0,1-1-.31,1,1,0,0,1-.4-.79h.41a.71.71,0,0,0,.3.56,1.24,1.24,0,0,0,.74.2,1.16,1.16,0,0,0,.69-.19A.56.56,0,0,0,231.57,80.59Z"/><path d="M232.81,82.46l-.24-.18a1.49,1.49,0,0,0,.32-.86v-.53h.4v.43A1.47,1.47,0,0,1,232.81,82.46Z"/><path d="M238.27,81.53a1.93,1.93,0,0,1-.08-.52,1.42,1.42,0,0,1-.55.43,1.67,1.67,0,0,1-.71.15,1.24,1.24,0,0,1-.86-.3,1,1,0,0,1-.33-.75,1,1,0,0,1,.45-.85,2.16,2.16,0,0,1,1.25-.31h.74V79a.81.81,0,0,0-.24-.62,1,1,0,0,0-.71-.23,1.11,1.11,0,0,0-.71.22.65.65,0,0,0-.28.53h-.41a1,1,0,0,1,.41-.76,1.58,1.58,0,0,1,1-.32,1.44,1.44,0,0,1,1,.31,1.11,1.11,0,0,1,.37.86v1.75a2.17,2.17,0,0,0,.11.8v0ZM237,81.24a1.37,1.37,0,0,0,.73-.2,1.17,1.17,0,0,0,.47-.53V79.7h-.73a1.83,1.83,0,0,0-1,.22.67.67,0,0,0-.35.6.66.66,0,0,0,.23.52A.87.87,0,0,0,237,81.24Z"/><path d="M240.08,77.83v.63a1.46,1.46,0,0,1,.52-.52,1.34,1.34,0,0,1,.69-.18,1.11,1.11,0,0,1,.89.33,1.51,1.51,0,0,1,.29,1v2.43h-.41V79.1a1.13,1.13,0,0,0-.21-.74.82.82,0,0,0-.66-.24,1,1,0,0,0-.67.24,1.39,1.39,0,0,0-.43.64v2.53h-.41v-3.7Z"/><path d="M243.37,79.65a2.23,2.23,0,0,1,.38-1.37,1.24,1.24,0,0,1,1-.51,1.29,1.29,0,0,1,1.14.59V76.28h.41v5.25H246l0-.49a1.32,1.32,0,0,1-1.16.56,1.23,1.23,0,0,1-1-.51,2.24,2.24,0,0,1-.39-1.39Zm.41.07a1.93,1.93,0,0,0,.28,1.12.92.92,0,0,0,.8.41,1.1,1.1,0,0,0,1.07-.67V78.84a1.09,1.09,0,0,0-1.07-.72.93.93,0,0,0-.8.41A2.06,2.06,0,0,0,243.78,79.72Z"/><path d="M249,79.65a2.23,2.23,0,0,1,.38-1.37,1.24,1.24,0,0,1,1-.51,1.29,1.29,0,0,1,1.14.59V76.28h.41v5.25h-.38l0-.49a1.32,1.32,0,0,1-1.16.56,1.23,1.23,0,0,1-1-.51A2.24,2.24,0,0,1,249,79.7Zm.41.07a1.93,1.93,0,0,0,.28,1.12.92.92,0,0,0,.8.41,1.1,1.1,0,0,0,1.07-.67V78.84a1.09,1.09,0,0,0-1.07-.72.93.93,0,0,0-.8.41A2.06,2.06,0,0,0,249.38,79.72Z"/><path d="M254.72,78.18l-.28,0a1,1,0,0,0-.65.21,1.18,1.18,0,0,0-.38.62v2.54H253v-3.7h.4v.59a1.09,1.09,0,0,1,1-.66.66.66,0,0,1,.27,0Z"/><path d="M256.6,80.94l1.08-3.11h.44l-1.58,4.33-.08.19a1,1,0,0,1-.94.67,1.16,1.16,0,0,1-.31,0v-.34l.21,0a.76.76,0,0,0,.49-.15,1.13,1.13,0,0,0,.32-.51l.18-.5L255,77.83h.45Z"/><path d="M260.14,81.6a1.61,1.61,0,0,1-.85-.23,1.59,1.59,0,0,1-.59-.65,2,2,0,0,1-.21-.93v-.15a2.18,2.18,0,0,1,.21-1,1.65,1.65,0,0,1,.58-.67,1.43,1.43,0,0,1,.8-.24,1.33,1.33,0,0,1,1.07.46,1.86,1.86,0,0,1,.4,1.26v.23h-2.64v.08a1.55,1.55,0,0,0,.36,1,1.15,1.15,0,0,0,.91.42,1.33,1.33,0,0,0,.58-.12,1.28,1.28,0,0,0,.46-.38l.26.19A1.49,1.49,0,0,1,260.14,81.6Zm-.07-3.49a1,1,0,0,0-.78.34,1.56,1.56,0,0,0-.38.91h2.22v0a1.36,1.36,0,0,0-.3-.87A.94.94,0,0,0,260.07,78.11Z"/><path d="M264,78.18l-.28,0a1,1,0,0,0-.65.21,1.18,1.18,0,0,0-.38.62v2.54h-.41v-3.7h.4v.59a1.09,1.09,0,0,1,1-.66.66.66,0,0,1,.27,0Z"/><path d="M264.23,81.29a.29.29,0,0,1,.08-.2.28.28,0,0,1,.21-.08.28.28,0,0,1,.22.08.29.29,0,0,1,.08.2.26.26,0,0,1-.08.2.3.3,0,0,1-.22.08.29.29,0,0,1-.21-.08A.27.27,0,0,1,264.23,81.29Z"/><path d="M73.71,88.53H71.45l-.51,1.4H70.5l1.88-5h.4l1.88,5h-.44Zm-2.13-.36h2l-1-2.71Z"/><path d="M75.76,89.93h-.41V84.68h.41Z"/><path d="M77.33,89.93h-.41V84.68h.41Z"/><path d="M80.52,86.23v.6a1.37,1.37,0,0,1,.51-.5,1.4,1.4,0,0,1,.68-.17,1,1,0,0,1,1.11.72,1.39,1.39,0,0,1,.53-.53,1.46,1.46,0,0,1,.73-.19q1.19,0,1.21,1.3v2.47H84.9V87.49a1.1,1.1,0,0,0-.21-.73.87.87,0,0,0-.69-.24,1.09,1.09,0,0,0-.75.29,1,1,0,0,0-.34.68v2.45h-.41V87.46a1,1,0,0,0-.22-.71.89.89,0,0,0-.68-.23,1,1,0,0,0-.66.22,1.29,1.29,0,0,0-.41.65v2.54h-.41v-3.7Z"/><path d="M86.12,88a2.17,2.17,0,0,1,.21-1,1.55,1.55,0,0,1,1.44-.9,1.52,1.52,0,0,1,1.2.52,2,2,0,0,1,.46,1.37v.09a2.19,2.19,0,0,1-.21,1,1.54,1.54,0,0,1-.58.66,1.6,1.6,0,0,1-.86.23,1.52,1.52,0,0,1-1.19-.52,2,2,0,0,1-.46-1.37Zm.41.11a1.68,1.68,0,0,0,.34,1.09,1.16,1.16,0,0,0,1.8,0A1.74,1.74,0,0,0,89,88.11V88a1.88,1.88,0,0,0-.16-.78,1.26,1.26,0,0,0-.44-.54,1.13,1.13,0,0,0-.65-.19,1.09,1.09,0,0,0-.89.43,1.74,1.74,0,0,0-.35,1.12Z"/><path d="M90.1,88a2.23,2.23,0,0,1,.38-1.37,1.24,1.24,0,0,1,1-.51,1.29,1.29,0,0,1,1.14.59V84.68h.41v5.25H92.7l0-.49a1.32,1.32,0,0,1-1.16.56,1.23,1.23,0,0,1-1-.51,2.24,2.24,0,0,1-.39-1.39Zm.41.07a1.93,1.93,0,0,0,.28,1.12.92.92,0,0,0,.8.41A1.1,1.1,0,0,0,92.67,89V87.24a1.09,1.09,0,0,0-1.07-.72.93.93,0,0,0-.8.41A2.06,2.06,0,0,0,90.52,88.12Z"/><path d="M95.59,90a1.61,1.61,0,0,1-.85-.23,1.58,1.58,0,0,1-.59-.65,2,2,0,0,1-.21-.93V88a2.17,2.17,0,0,1,.21-1,1.65,1.65,0,0,1,.58-.67,1.42,1.42,0,0,1,.8-.24,1.33,1.33,0,0,1,1.07.46,1.86,1.86,0,0,1,.4,1.26v.23H94.34v.08a1.55,1.55,0,0,0,.36,1,1.15,1.15,0,0,0,.91.42,1.33,1.33,0,0,0,.58-.12,1.28,1.28,0,0,0,.46-.38l.26.19A1.49,1.49,0,0,1,95.59,90Zm-.08-3.49a1,1,0,0,0-.78.34,1.56,1.56,0,0,0-.38.91h2.22v0a1.36,1.36,0,0,0-.3-.87A.94.94,0,0,0,95.51,86.51Z"/><path d="M98.23,89.93h-.41V84.68h.41Z"/><path d="M101.56,89a.58.58,0,0,0-.24-.49,1.89,1.89,0,0,0-.74-.29,3.31,3.31,0,0,1-.76-.24,1,1,0,0,1-.4-.33.83.83,0,0,1-.13-.47.88.88,0,0,1,.37-.72,1.48,1.48,0,0,1,.94-.29,1.52,1.52,0,0,1,1,.31,1,1,0,0,1,.37.8h-.41a.66.66,0,0,0-.27-.54,1.23,1.23,0,0,0-1.33,0,.55.55,0,0,0-.24.47.5.5,0,0,0,.2.43,2.16,2.16,0,0,0,.74.28,3.48,3.48,0,0,1,.81.27,1,1,0,0,1,.4.35.95.95,0,0,1-.25,1.24,1.61,1.61,0,0,1-1,.28,1.66,1.66,0,0,1-1-.31,1,1,0,0,1-.4-.79h.41a.71.71,0,0,0,.3.56,1.24,1.24,0,0,0,.74.2,1.16,1.16,0,0,0,.69-.19A.56.56,0,0,0,101.56,89Z"/><path d="M108.11,85v3.4a1.72,1.72,0,0,1-.22.88,1.45,1.45,0,0,1-.62.57,2,2,0,0,1-.91.2,1.81,1.81,0,0,1-1.26-.43,1.57,1.57,0,0,1-.49-1.19V85H105v3.37a1.29,1.29,0,0,0,.36,1,1.54,1.54,0,0,0,1.95,0,1.3,1.3,0,0,0,.36-1V85Z"/><path d="M109.71,89.58h2.46v.36h-2.88V85h.42Z"/><path d="M115.95,89.65a1.08,1.08,0,0,0,.72-.24.85.85,0,0,0,.31-.62h.39a1.16,1.16,0,0,1-.21.62,1.33,1.33,0,0,1-.52.44,1.56,1.56,0,0,1-.69.16,1.43,1.43,0,0,1-1.15-.51,2,2,0,0,1-.43-1.36V88a2.31,2.31,0,0,1,.19-1,1.47,1.47,0,0,1,.55-.65,1.51,1.51,0,0,1,.84-.23,1.43,1.43,0,0,1,1,.36,1.32,1.32,0,0,1,.42,1H117a1,1,0,0,0-1-1,1,1,0,0,0-.86.4,1.81,1.81,0,0,0-.31,1.12v.12a1.77,1.77,0,0,0,.31,1.1A1,1,0,0,0,115.95,89.65Z"/><path d="M119.62,90a1.61,1.61,0,0,1-.85-.23,1.58,1.58,0,0,1-.59-.65,2,2,0,0,1-.21-.93V88a2.17,2.17,0,0,1,.21-1,1.65,1.65,0,0,1,.58-.67,1.42,1.42,0,0,1,.8-.24,1.33,1.33,0,0,1,1.07.46,1.86,1.86,0,0,1,.4,1.26v.23h-2.64v.08a1.55,1.55,0,0,0,.36,1,1.15,1.15,0,0,0,.91.42,1.33,1.33,0,0,0,.58-.12,1.28,1.28,0,0,0,.46-.38l.26.19A1.49,1.49,0,0,1,119.62,90Zm-.08-3.49a1,1,0,0,0-.78.34,1.56,1.56,0,0,0-.38.91h2.22v0a1.36,1.36,0,0,0-.3-.87A.94.94,0,0,0,119.54,86.51Z"/><path d="M123.51,86.58l-.28,0a1,1,0,0,0-.65.21,1.17,1.17,0,0,0-.38.62v2.54h-.41v-3.7h.4v.59a1.09,1.09,0,0,1,1-.66.67.67,0,0,1,.27,0Z"/><path d="M125,85.29v.95h.77v.33H125V89a.77.77,0,0,0,.11.46.43.43,0,0,0,.37.15l.33,0,0,.33a1.33,1.33,0,0,1-.44.06.73.73,0,0,1-.61-.24,1.15,1.15,0,0,1-.19-.72V86.57h-.68v-.33h.68v-.95Z"/><path d="M126.55,85.16a.27.27,0,0,1,.08-.19.27.27,0,0,1,.21-.08A.27.27,0,0,1,127,85a.27.27,0,0,1,.08.19.26.26,0,0,1-.08.19.28.28,0,0,1-.21.08.27.27,0,0,1-.21-.08A.27.27,0,0,1,126.55,85.16Zm.48,4.77h-.41v-3.7H127Z"/><path d="M128.44,89.93V86.57h-.61v-.33h.61v-.45a1.22,1.22,0,0,1,.29-.87,1.06,1.06,0,0,1,.8-.3,1.57,1.57,0,0,1,.43.06l0,.34a1.6,1.6,0,0,0-.37,0,.67.67,0,0,0-.53.21.87.87,0,0,0-.19.6v.46h.88v.33h-.88v3.36Z"/><path d="M130.44,85.16a.27.27,0,0,1,.08-.19.27.27,0,0,1,.21-.08.27.27,0,0,1,.21.08.27.27,0,0,1,.08.19.26.26,0,0,1-.08.19.28.28,0,0,1-.21.08.27.27,0,0,1-.21-.08A.27.27,0,0,1,130.44,85.16Zm.48,4.77h-.41v-3.7h.41Z"/><path d="M133.46,90a1.61,1.61,0,0,1-.85-.23,1.58,1.58,0,0,1-.59-.65,2,2,0,0,1-.21-.93V88a2.17,2.17,0,0,1,.21-1,1.65,1.65,0,0,1,.58-.67,1.42,1.42,0,0,1,.8-.24,1.33,1.33,0,0,1,1.07.46,1.86,1.86,0,0,1,.4,1.26v.23h-2.64v.08a1.55,1.55,0,0,0,.36,1,1.15,1.15,0,0,0,.91.42,1.33,1.33,0,0,0,.58-.12,1.28,1.28,0,0,0,.46-.38l.26.19A1.49,1.49,0,0,1,133.46,90Zm-.08-3.49a1,1,0,0,0-.78.34,1.56,1.56,0,0,0-.38.91h2.22v0a1.36,1.36,0,0,0-.3-.87A.94.94,0,0,0,133.39,86.51Z"/><path d="M135.48,88a2.23,2.23,0,0,1,.38-1.37,1.24,1.24,0,0,1,1-.51,1.29,1.29,0,0,1,1.14.59V84.68h.41v5.25h-.38l0-.49a1.32,1.32,0,0,1-1.16.56,1.23,1.23,0,0,1-1-.51,2.24,2.24,0,0,1-.39-1.39Zm.41.07a1.93,1.93,0,0,0,.28,1.12.92.92,0,0,0,.8.41,1.1,1.1,0,0,0,1.07-.67V87.24a1.09,1.09,0,0,0-1.07-.72.93.93,0,0,0-.8.41A2.06,2.06,0,0,0,135.9,88.12Z"/><path d="M142.12,89.08l.06.32.08-.33.89-2.83h.35l.88,2.81.1.39.08-.36.76-2.84h.42l-1.08,3.7h-.35l-1-2.93,0-.2,0,.21-.93,2.93H142l-1.07-3.7h.42Z"/><path d="M146.49,85.16a.27.27,0,0,1,.08-.19.27.27,0,0,1,.21-.08A.27.27,0,0,1,147,85a.27.27,0,0,1,.08.19.26.26,0,0,1-.08.19.28.28,0,0,1-.21.08.27.27,0,0,1-.21-.08A.27.27,0,0,1,146.49,85.16Zm.48,4.77h-.41v-3.7H147Z"/><path d="M148.72,85.29v.95h.77v.33h-.77V89a.77.77,0,0,0,.11.46.43.43,0,0,0,.37.15l.33,0,0,.33a1.33,1.33,0,0,1-.44.06.73.73,0,0,1-.61-.24,1.15,1.15,0,0,1-.19-.72V86.57h-.68v-.33h.68v-.95Z"/><path d="M150.74,86.86a1.44,1.44,0,0,1,.52-.51,1.35,1.35,0,0,1,.69-.18,1.11,1.11,0,0,1,.89.33,1.51,1.51,0,0,1,.29,1v2.43h-.41V87.5a1.13,1.13,0,0,0-.21-.74.82.82,0,0,0-.66-.24,1,1,0,0,0-.67.24,1.4,1.4,0,0,0-.43.64v2.53h-.41V84.68h.41Z"/><path d="M158.72,87.55h-2.33v2h2.68v.36H156V85h3.08v.36h-2.66v1.88h2.33Z"/><path d="M160.25,86.23v.63a1.46,1.46,0,0,1,.52-.52,1.35,1.35,0,0,1,.69-.18,1.11,1.11,0,0,1,.89.33,1.51,1.51,0,0,1,.29,1v2.43h-.41V87.5a1.13,1.13,0,0,0-.21-.74.82.82,0,0,0-.66-.24,1,1,0,0,0-.67.24,1.4,1.4,0,0,0-.43.64v2.53h-.41v-3.7Z"/><path d="M165.14,90a1.61,1.61,0,0,1-.85-.23,1.58,1.58,0,0,1-.59-.65,2,2,0,0,1-.21-.93V88a2.17,2.17,0,0,1,.21-1,1.65,1.65,0,0,1,.58-.67,1.42,1.42,0,0,1,.8-.24,1.33,1.33,0,0,1,1.07.46,1.86,1.86,0,0,1,.4,1.26v.23h-2.64v.08a1.55,1.55,0,0,0,.36,1,1.15,1.15,0,0,0,.91.42,1.33,1.33,0,0,0,.58-.12,1.28,1.28,0,0,0,.46-.38l.26.19A1.49,1.49,0,0,1,165.14,90Zm-.08-3.49a1,1,0,0,0-.78.34,1.56,1.56,0,0,0-.38.91h2.22v0a1.36,1.36,0,0,0-.3-.87A.94.94,0,0,0,165.06,86.51Z"/><path d="M169,86.58l-.28,0a1,1,0,0,0-.65.21,1.17,1.17,0,0,0-.38.62v2.54h-.41v-3.7h.4v.59a1.09,1.09,0,0,1,1-.66.67.67,0,0,1,.27,0Z"/><path d="M169.45,88a2.22,2.22,0,0,1,.38-1.38,1.24,1.24,0,0,1,1-.51,1.29,1.29,0,0,1,1.15.6l0-.53h.38v3.62A1.57,1.57,0,0,1,172,91a1.43,1.43,0,0,1-1.08.42,1.65,1.65,0,0,1-.74-.17,1.43,1.43,0,0,1-.55-.46l.23-.25a1.3,1.3,0,0,0,1,.53,1,1,0,0,0,.8-.3,1.2,1.2,0,0,0,.3-.84v-.46a1.32,1.32,0,0,1-1.15.55,1.23,1.23,0,0,1-1-.51,2.23,2.23,0,0,1-.39-1.38Zm.41.07a1.93,1.93,0,0,0,.28,1.12.92.92,0,0,0,.8.41A1.09,1.09,0,0,0,172,89V87.25a1.16,1.16,0,0,0-.41-.54,1.11,1.11,0,0,0-.65-.19.93.93,0,0,0-.8.41A2.06,2.06,0,0,0,169.86,88.12Z"/><path d="M174.67,89.34l1.08-3.11h.44l-1.58,4.33-.08.19a1,1,0,0,1-.94.67,1.15,1.15,0,0,1-.31,0V91l.21,0a.76.76,0,0,0,.49-.15,1.13,1.13,0,0,0,.32-.51l.18-.5-1.39-3.67h.45Z"/><path d="M181.43,88.71a.8.8,0,0,0-.29-.65,3.06,3.06,0,0,0-1.06-.46,3.73,3.73,0,0,1-1.13-.47,1.15,1.15,0,0,1,0-1.88,1.93,1.93,0,0,1,1.2-.36,2,2,0,0,1,.89.19,1.45,1.45,0,0,1,.61.53,1.4,1.4,0,0,1,.22.76h-.42a1,1,0,0,0-.35-.82,1.36,1.36,0,0,0-.94-.31,1.48,1.48,0,0,0-.91.25.8.8,0,0,0-.34.67.75.75,0,0,0,.3.62,2.82,2.82,0,0,0,1,.42,4.58,4.58,0,0,1,1,.38,1.45,1.45,0,0,1,.52.47,1.18,1.18,0,0,1,.17.65,1.13,1.13,0,0,1-.47.94,2,2,0,0,1-1.24.36,2.43,2.43,0,0,1-1-.19,1.48,1.48,0,0,1-.67-.53,1.36,1.36,0,0,1-.23-.78h.42a1,1,0,0,0,.39.83,1.67,1.67,0,0,0,1,.3,1.55,1.55,0,0,0,.93-.26A.8.8,0,0,0,181.43,88.71Z"/><path d="M185,89.93a1.93,1.93,0,0,1-.08-.52,1.42,1.42,0,0,1-.55.43,1.67,1.67,0,0,1-.71.15,1.24,1.24,0,0,1-.86-.3,1,1,0,0,1-.33-.75,1,1,0,0,1,.45-.85,2.16,2.16,0,0,1,1.25-.31h.74v-.42a.81.81,0,0,0-.24-.62,1,1,0,0,0-.71-.23,1.11,1.11,0,0,0-.71.22.65.65,0,0,0-.28.53h-.41a1,1,0,0,1,.41-.76,1.58,1.58,0,0,1,1-.32,1.44,1.44,0,0,1,1,.31,1.11,1.11,0,0,1,.37.86v1.75a2.17,2.17,0,0,0,.11.8v0Zm-1.29-.29a1.37,1.37,0,0,0,.73-.2,1.17,1.17,0,0,0,.47-.53V88.1h-.73a1.83,1.83,0,0,0-1,.22.67.67,0,0,0-.35.6.66.66,0,0,0,.23.52A.87.87,0,0,0,183.72,89.64Z"/><path d="M187.52,89.37l1.12-3.13h.42l-1.38,3.7h-.33L186,86.23h.42Z"/><path d="M191.12,90a1.61,1.61,0,0,1-.85-.23,1.58,1.58,0,0,1-.59-.65,2,2,0,0,1-.21-.93V88a2.17,2.17,0,0,1,.21-1,1.65,1.65,0,0,1,.58-.67,1.42,1.42,0,0,1,.8-.24,1.33,1.33,0,0,1,1.07.46,1.86,1.86,0,0,1,.4,1.26v.23h-2.64v.08a1.55,1.55,0,0,0,.36,1,1.15,1.15,0,0,0,.91.42,1.33,1.33,0,0,0,.58-.12,1.28,1.28,0,0,0,.46-.38l.26.19A1.49,1.49,0,0,1,191.12,90ZM191,86.51a1,1,0,0,0-.78.34,1.56,1.56,0,0,0-.38.91h2.22v0a1.36,1.36,0,0,0-.3-.87A.94.94,0,0,0,191,86.51Z"/><path d="M193.12,87.44a2.65,2.65,0,0,1,.32-1.28,2.4,2.4,0,0,1,.89-.93,2.37,2.37,0,0,1,2.44,0,2.4,2.4,0,0,1,.89.93,2.74,2.74,0,0,1,0,2.55,2.43,2.43,0,0,1-.88.94,2.35,2.35,0,0,1-2.48,0,2.43,2.43,0,0,1-.88-.94A2.67,2.67,0,0,1,193.12,87.44Zm.29,0a2.35,2.35,0,0,0,.29,1.14,2.15,2.15,0,0,0,.78.83,2,2,0,0,0,2.14,0,2.12,2.12,0,0,0,.78-.83,2.42,2.42,0,0,0,0-2.26,2.14,2.14,0,0,0-.77-.83,2.05,2.05,0,0,0-2.15,0,2.14,2.14,0,0,0-.78.82A2.33,2.33,0,0,0,193.41,87.44Zm1.58.21v1.18h-.33V86h.88a1.23,1.23,0,0,1,.77.21.76.76,0,0,1,.27.64.71.71,0,0,1-.48.67.58.58,0,0,1,.34.28,1,1,0,0,1,.1.45,3.57,3.57,0,0,0,0,.38.81.81,0,0,0,0,.2v.05h-.35a2.35,2.35,0,0,1,0-.62.59.59,0,0,0-.13-.43.61.61,0,0,0-.44-.13Zm0-.31h.62a.71.71,0,0,0,.46-.14.46.46,0,0,0,.18-.38.51.51,0,0,0-.15-.42.82.82,0,0,0-.51-.13H195Z"/><path d="M201.26,85.29v.95H202v.33h-.77V89a.77.77,0,0,0,.11.46.43.43,0,0,0,.37.15l.33,0,0,.33a1.33,1.33,0,0,1-.44.06.73.73,0,0,1-.61-.24,1.15,1.15,0,0,1-.19-.72V86.57h-.68v-.33h.68v-.95Z"/><path d="M204.3,90a1.61,1.61,0,0,1-.85-.23,1.58,1.58,0,0,1-.59-.65,2,2,0,0,1-.21-.93V88a2.17,2.17,0,0,1,.21-1,1.65,1.65,0,0,1,.58-.67,1.42,1.42,0,0,1,.8-.24,1.33,1.33,0,0,1,1.07.46,1.86,1.86,0,0,1,.4,1.26v.23H203v.08a1.55,1.55,0,0,0,.36,1,1.15,1.15,0,0,0,.91.42,1.33,1.33,0,0,0,.58-.12,1.28,1.28,0,0,0,.46-.38l.26.19A1.49,1.49,0,0,1,204.3,90Zm-.08-3.49a1,1,0,0,0-.78.34,1.56,1.56,0,0,0-.38.91h2.22v0a1.36,1.36,0,0,0-.3-.87A.94.94,0,0,0,204.23,86.51Z"/><path d="M207.85,89.65a1.08,1.08,0,0,0,.72-.24.85.85,0,0,0,.31-.62h.39a1.16,1.16,0,0,1-.21.62,1.33,1.33,0,0,1-.52.44,1.56,1.56,0,0,1-.69.16,1.43,1.43,0,0,1-1.15-.51,2,2,0,0,1-.43-1.36V88a2.31,2.31,0,0,1,.19-1,1.47,1.47,0,0,1,.55-.65,1.51,1.51,0,0,1,.84-.23,1.43,1.43,0,0,1,1,.36,1.32,1.32,0,0,1,.42,1h-.39a1,1,0,0,0-1-1,1,1,0,0,0-.86.4,1.81,1.81,0,0,0-.31,1.12v.12a1.77,1.77,0,0,0,.31,1.1A1,1,0,0,0,207.85,89.65Z"/><path d="M210.5,86.86a1.44,1.44,0,0,1,.52-.51,1.35,1.35,0,0,1,.69-.18,1.11,1.11,0,0,1,.89.33,1.51,1.51,0,0,1,.29,1v2.43h-.41V87.5a1.13,1.13,0,0,0-.21-.74.82.82,0,0,0-.66-.24,1,1,0,0,0-.67.24,1.4,1.4,0,0,0-.43.64v2.53h-.41V84.68h.41Z"/><path d="M214.32,86.23v.63a1.46,1.46,0,0,1,.52-.52,1.35,1.35,0,0,1,.69-.18,1.11,1.11,0,0,1,.89.33,1.51,1.51,0,0,1,.29,1v2.43h-.41V87.5a1.13,1.13,0,0,0-.21-.74.82.82,0,0,0-.66-.24,1,1,0,0,0-.67.24,1.4,1.4,0,0,0-.43.64v2.53h-.41v-3.7Z"/><path d="M217.55,88a2.17,2.17,0,0,1,.21-1,1.55,1.55,0,0,1,1.44-.9,1.52,1.52,0,0,1,1.2.52,2,2,0,0,1,.46,1.37v.09a2.19,2.19,0,0,1-.21,1,1.54,1.54,0,0,1-.58.66,1.6,1.6,0,0,1-.86.23,1.52,1.52,0,0,1-1.19-.52,2,2,0,0,1-.46-1.37Zm.41.11a1.68,1.68,0,0,0,.34,1.09,1.16,1.16,0,0,0,1.8,0,1.74,1.74,0,0,0,.34-1.12V88a1.88,1.88,0,0,0-.16-.78,1.26,1.26,0,0,0-.44-.54,1.13,1.13,0,0,0-.65-.19,1.09,1.09,0,0,0-.89.43,1.74,1.74,0,0,0-.35,1.12Z"/><path d="M222.16,89.93h-.41V84.68h.41Z"/><path d="M223,88a2.17,2.17,0,0,1,.21-1,1.55,1.55,0,0,1,1.44-.9,1.52,1.52,0,0,1,1.2.52,2,2,0,0,1,.46,1.37v.09a2.19,2.19,0,0,1-.21,1,1.54,1.54,0,0,1-.58.66,1.6,1.6,0,0,1-.86.23,1.52,1.52,0,0,1-1.19-.52,2,2,0,0,1-.46-1.37Zm.41.11a1.68,1.68,0,0,0,.34,1.09,1.16,1.16,0,0,0,1.8,0,1.74,1.74,0,0,0,.34-1.12V88a1.88,1.88,0,0,0-.16-.78,1.26,1.26,0,0,0-.44-.54,1.13,1.13,0,0,0-.65-.19,1.09,1.09,0,0,0-.89.43,1.74,1.74,0,0,0-.35,1.12Z"/><path d="M227,88a2.22,2.22,0,0,1,.38-1.38,1.24,1.24,0,0,1,1-.51,1.29,1.29,0,0,1,1.15.6l0-.53H230v3.62a1.57,1.57,0,0,1-.4,1.13,1.43,1.43,0,0,1-1.08.42,1.65,1.65,0,0,1-.74-.17,1.43,1.43,0,0,1-.55-.46l.23-.25a1.3,1.3,0,0,0,1,.53,1,1,0,0,0,.8-.3,1.2,1.2,0,0,0,.3-.84v-.46a1.32,1.32,0,0,1-1.15.55,1.23,1.23,0,0,1-1-.51A2.23,2.23,0,0,1,227,88.1Zm.41.07a1.93,1.93,0,0,0,.28,1.12.92.92,0,0,0,.8.41,1.09,1.09,0,0,0,1.07-.68V87.25a1.16,1.16,0,0,0-.41-.54,1.11,1.11,0,0,0-.65-.19.93.93,0,0,0-.8.41A2.06,2.06,0,0,0,227.44,88.12Z"/><path d="M232.24,89.34l1.08-3.11h.44l-1.58,4.33-.08.19a1,1,0,0,1-.94.67,1.15,1.15,0,0,1-.31,0V91l.21,0a.76.76,0,0,0,.49-.15,1.13,1.13,0,0,0,.32-.51l.18-.5-1.39-3.67h.45Z"/><path d="M234,89.69a.29.29,0,0,1,.08-.2.28.28,0,0,1,.21-.08.28.28,0,0,1,.22.08.29.29,0,0,1,.08.2.26.26,0,0,1-.08.2.29.29,0,0,1-.22.08.29.29,0,0,1-.21-.08A.27.27,0,0,1,234,89.69Z"/></g></g></svg>