<svg xmlns="http://www.w3.org/2000/svg" viewBox="0 0 222.31 63.77"><defs><style>.cls-1{fill:#dca3ca;}.cls-2{fill:#6570b5;}.cls-3{fill:#656fb4;}</style></defs><title>lotus_alliance_logo_4</title><g id="Layer_2" data-name="Layer 2"><g id="Layer_1-2" data-name="Layer 1"><path class="cls-1" d="M8.87,9.74A27,27,0,0,1,16,1.93a27.4,27.4,0,0,1,11.5,10.26,18.16,18.16,0,0,0-1.82,1.05,31.34,31.34,0,0,0-8.63-6.78,28.5,28.5,0,0,0-5.07,5A33.36,33.36,0,0,0,8.87,9.74Z"/><path class="cls-1" d="M7.39,29a22.1,22.1,0,0,1,3.26-15.58l-.34-.22A24.24,24.24,0,0,0,5.14,11,24.49,24.49,0,0,0,0,25.26C0,37.82,12,41.37,15.13,41.89A20.15,20.15,0,0,1,7.39,29Z"/><path class="cls-1" d="M16.09,30.18a20.26,20.26,0,0,1,8.38-16.06l-.65-.56h0a22.81,22.81,0,0,0-6.08-3.92A20.63,20.63,0,0,0,9.43,25.71c0,8.26,4.88,16,11.76,17.43A18.61,18.61,0,0,1,16.09,30.18Z"/><path class="cls-1" d="M48.72,9.74a26.91,26.91,0,0,0-7.18-7.81,27.5,27.5,0,0,0-11.5,10.26,18.79,18.79,0,0,1,1.82,1.05,31.25,31.25,0,0,1,8.63-6.78,29,29,0,0,1,5.07,5A32,32,0,0,1,48.72,9.74Z"/><path class="cls-1" d="M50.19,29a22,22,0,0,0-3.26-15.58l.33-.22A24.82,24.82,0,0,1,52.44,11a24.44,24.44,0,0,1,5.15,14.27c0,12.56-12,16.11-15.14,16.63C46.37,39.17,49.29,34.24,50.19,29Z"/><path class="cls-1" d="M41.49,30.18a20.25,20.25,0,0,0-8.37-16.06l.65-.56h0a22.74,22.74,0,0,1,6.07-3.92,20.61,20.61,0,0,1,8.31,16.07c0,8.26-4.88,16-11.75,17.43A18.6,18.6,0,0,0,41.49,30.18Z"/><path class="cls-1" d="M28.83,0a23.75,23.75,0,0,1,4.78,4.64,25.54,25.54,0,0,0-4.78,6.19A25.5,25.5,0,0,0,24,4.64,23.43,23.43,0,0,1,28.83,0Z"/><path class="cls-1" d="M28.79,45.35c-6.24,0-10.54-7.1-10.54-14.18S22.5,18,28.79,14.87A18.45,18.45,0,0,1,39.33,31.18C39.33,38.19,35,45.35,28.79,45.35Z"/><path class="cls-2" d="M69.21,40.15V5.22H74V36.13H91.34v4Z"/><path class="cls-2" d="M139.73,40.15V8.92H126.85V5.22h29.72v3.7H144.29V40.15Z"/><path class="cls-2" d="M215.07,37.54a14,14,0,0,1-8.84,2.61,36.3,36.3,0,0,1-8.82-1.42v-4.1A25,25,0,0,0,207,37a7.56,7.56,0,0,0,5-1.56,4.85,4.85,0,0,0,1.91-4,5.34,5.34,0,0,0-1.25-3.56,16,16,0,0,0-4.45-3.18l-2.44-1.34a22.87,22.87,0,0,1-6.29-4.59,7.38,7.38,0,0,1-1.78-4.9,7.86,7.86,0,0,1,2.86-6.21,11,11,0,0,1,7.36-2.45,31.07,31.07,0,0,1,8.33,1.24v3.75a26.33,26.33,0,0,0-8-2,7.12,7.12,0,0,0-4.49,1.39,4.35,4.35,0,0,0-1.81,3.56,4.51,4.51,0,0,0,1.32,3.19,19.93,19.93,0,0,0,4.61,3.16l2.54,1.37a21.81,21.81,0,0,1,6.32,4.63,7.92,7.92,0,0,1,1.75,5.14A8.32,8.32,0,0,1,215.07,37.54Z"/><path class="cls-2" d="M124.6,25a18.85,18.85,0,0,1-2.18,6.53,17.43,17.43,0,0,1-4.31,5.13,16.43,16.43,0,0,1-5.77,3,14.69,14.69,0,0,1-6.28.42,14.91,14.91,0,0,1-6-2.24,16,16,0,0,1-4.63-4.55,17.4,17.4,0,0,1-2.64-6.13,19,19,0,0,1-.2-6.91,19.24,19.24,0,0,1,2.17-6.56,17.43,17.43,0,0,1,4.31-5.15,16,16,0,0,1,5.74-3,15.37,15.37,0,0,1,12.27,1.81A16.19,16.19,0,0,1,121.74,12a17.75,17.75,0,0,1,2.65,6.21A18.94,18.94,0,0,1,124.6,25Zm-4-2.4a15.05,15.05,0,0,0-.92-5.25A13.7,13.7,0,0,0,117.1,13,11.56,11.56,0,0,0,113.23,10a10.67,10.67,0,0,0-4.62-1A10.87,10.87,0,0,0,104,10a11.8,11.8,0,0,0-3.89,3,13.35,13.35,0,0,0-2.6,4.42,15.47,15.47,0,0,0-.88,5.28,15,15,0,0,0,.91,5.23,13.79,13.79,0,0,0,2.62,4.4,11.92,11.92,0,0,0,3.89,3,10.84,10.84,0,0,0,4.64,1,10.58,10.58,0,0,0,4.57-1,12.18,12.18,0,0,0,3.9-3,13.69,13.69,0,0,0,2.61-4.42A15.06,15.06,0,0,0,120.65,22.64Z"/><path class="cls-2" d="M186.38,5.22V25.87q0,5.34-2.54,8c-1.69,1.79-3.66,2.69-7,2.69s-5.34-.89-7-2.69-2.54-4.46-2.54-8V5.22h-4v21.2q0,6.91,3.48,10.32c2.32,2.27,5.36,3.41,10.07,3.41s7.75-1.14,10.09-3.42,3.5-5.72,3.5-10.31V5.22Z"/><path class="cls-3" d="M1.15,52.83A16.66,16.66,0,0,1,4,52.6a5.17,5.17,0,0,1,3.12.7,2.3,2.3,0,0,1,1.13,2A2.54,2.54,0,0,1,6.49,57.7v0a2.75,2.75,0,0,1,2.2,2.7,2.83,2.83,0,0,1-1.05,2.25c-.78.68-2.06,1-4,1a19.37,19.37,0,0,1-2.44-.15Zm2,4.31h1c1.38,0,2.15-.65,2.15-1.57s-.78-1.49-2-1.49a5.39,5.39,0,0,0-1.13.08Zm0,5a8.82,8.82,0,0,0,1.05,0c1.28,0,2.41-.49,2.41-1.83s-1.1-1.78-2.48-1.78h-1Z"/><path class="cls-3" d="M17.5,58.75H13.39V62H18v1.64H11.4V52.68h6.35v1.63H13.39v2.82H17.5Z"/><path class="cls-3" d="M22.84,60.5l-.94,3.09H19.85l3.5-10.91h2.54l3.55,10.91H27.29l-1-3.09ZM26,59l-.86-2.69c-.21-.66-.39-1.41-.55-2h0c-.16.63-.32,1.39-.52,2L23.16,59Z"/><path class="cls-3" d="M33.33,52.68V59c0,2.14.89,3.12,2.23,3.12s2.3-1,2.3-3.12V52.68h2v6.23c0,3.37-1.73,4.86-4.35,4.86s-4.16-1.41-4.16-4.84V52.68Z"/><path class="cls-3" d="M45.15,54.35H42V52.68h8.24v1.67H47.14v9.24h-2Z"/><path class="cls-3" d="M55.21,63.59V59l-3.45-6.36H54l1.31,2.8c.37.81.65,1.42.94,2.17h0c.27-.7.58-1.38,1-2.17l1.31-2.8h2.25L57.21,59v4.6Z"/><path class="cls-3" d="M74.14,63.59c-.28-.28-.53-.55-.86-.91a4.59,4.59,0,0,1-3.08,1.08c-2.41,0-3.61-1.51-3.61-3.08a3.52,3.52,0,0,1,2.1-3.16v0a3.51,3.51,0,0,1-.87-2.19,2.85,2.85,0,0,1,3.06-2.8,2.47,2.47,0,0,1,2.7,2.44c0,1.13-.65,2.06-2.25,2.85l0,.06c.76.87,1.6,1.85,2.2,2.49a7.92,7.92,0,0,0,1-2.9h1.78a8.15,8.15,0,0,1-1.7,4.1c.6.66,1.2,1.33,1.88,2Zm-1.81-2c-.66-.7-1.7-1.85-2.72-3a2.23,2.23,0,0,0-1.12,1.83,1.89,1.89,0,0,0,2,1.93A2.53,2.53,0,0,0,72.32,61.57Zm-2.7-6.46a2.6,2.6,0,0,0,.79,1.75c.92-.58,1.46-1.08,1.46-1.85a1.12,1.12,0,0,0-1.08-1.23A1.21,1.21,0,0,0,69.62,55.11Z"/><path class="cls-3" d="M84.87,52.68v4.37h4.61V52.68h2V63.59h-2V58.78H84.87v4.81h-2V52.68Z"/><path class="cls-3" d="M100.78,58.75H96.67V62h4.6v1.64H94.68V52.68H101v1.63H96.67v2.82h4.11Z"/><path class="cls-3" d="M106.12,60.5l-.94,3.09h-2.06l3.5-10.91h2.54l3.55,10.91h-2.14l-1-3.09ZM109.25,59l-.86-2.69c-.21-.66-.39-1.41-.55-2h0c-.16.63-.32,1.39-.52,2L106.45,59Z"/><path class="cls-3" d="M115.15,52.68h2v9.24h4.48v1.67h-6.48Z"/><path class="cls-3" d="M124.58,54.35h-3.11V52.68h8.24v1.67h-3.14v9.24h-2Z"/><path class="cls-3" d="M133.9,52.68v4.37h4.61V52.68h2V63.59h-2V58.78H133.9v4.81h-2V52.68Z"/><path class="cls-3" d="M150.17,60.5l-.94,3.09h-2.06l3.5-10.91h2.54l3.55,10.91h-2.14l-1-3.09ZM153.29,59l-.86-2.69c-.21-.66-.39-1.41-.55-2h0c-.16.63-.32,1.39-.52,2L150.49,59Z"/><path class="cls-3" d="M159.2,52.68h2v9.24h4.48v1.67H159.2Z"/><path class="cls-3" d="M168.1,52.68h2v9.24h4.48v1.67H168.1Z"/><path class="cls-3" d="M179,52.68V63.59h-2V52.68Z"/><path class="cls-3" d="M184.39,60.5l-.94,3.09h-2.06l3.5-10.91h2.54L191,63.59h-2.14l-1-3.09ZM187.51,59l-.86-2.69c-.21-.66-.39-1.41-.55-2h0c-.16.63-.32,1.39-.52,2L184.71,59Z"/><path class="cls-3" d="M193.42,63.59V52.68h2.27l2.82,4.68A30,30,0,0,1,200.37,61h0c-.13-1.46-.18-2.87-.18-4.53v-3.8h1.85V63.59H200l-2.85-4.79a38,38,0,0,1-2-3.77l0,0c.08,1.41.1,2.85.1,4.65v3.9Z"/><path class="cls-3" d="M213.1,63.27a6.89,6.89,0,0,1-2.82.49c-3.46,0-5.57-2.17-5.57-5.49a5.49,5.49,0,0,1,5.83-5.76,6.27,6.27,0,0,1,2.66.49l-.44,1.59a5.3,5.3,0,0,0-2.14-.42c-2.22,0-3.82,1.39-3.82,4a3.58,3.58,0,0,0,3.8,3.93,5.58,5.58,0,0,0,2.17-.4Z"/><path class="cls-3" d="M221.83,58.75h-4.11V62h4.6v1.64h-6.59V52.68h6.35v1.63h-4.36v2.82h4.11Z"/></g></g></svg>